<?xml version="1.0" encoding="UTF-8"?>
<svg id="Layer_1" data-name="Layer 1" xmlns="http://www.w3.org/2000/svg" viewBox="0 0 598.61 705.34">
  <defs>
    <style>
      .cls-1 {
        fill: #784821;
      }

      .cls-1, .cls-2, .cls-3, .cls-4, .cls-5, .cls-6, .cls-7, .cls-8, .cls-9, .cls-10, .cls-11, .cls-12, .cls-13, .cls-14, .cls-15, .cls-16, .cls-17, .cls-18, .cls-19, .cls-20, .cls-21, .cls-22, .cls-23, .cls-24 {
        stroke-width: 0px;
      }

      .cls-2 {
        fill: #343833;
      }

      .cls-3 {
        fill: #2d2619;
      }

      .cls-4 {
        fill: #626368;
      }

      .cls-5 {
        fill: #548e40;
      }

      .cls-6 {
        fill: #99ca48;
      }

      .cls-7 {
        fill: #54323a;
      }

      .cls-8 {
        fill: #a52224;
      }

      .cls-9 {
        fill: #3e8040;
      }

      .cls-10 {
        fill: #434343;
      }

      .cls-11 {
        fill: #cd2a2a;
      }

      .cls-12 {
        fill: #cbac7b;
      }

      .cls-13 {
        fill: #c69448;
      }

      .cls-14 {
        fill: #e37183;
      }

      .cls-15 {
        fill: #dfac5b;
      }

      .cls-16 {
        fill: #85a964;
      }

      .cls-17 {
        fill: #b5b7b7;
      }

      .cls-18 {
        fill: #a13324;
      }

      .cls-19 {
        fill: #872526;
      }

      .cls-20 {
        fill: #818282;
      }

      .cls-21 {
        fill: #ec8c2a;
      }

      .cls-22 {
        fill: #f1d9a3;
      }

      .cls-23 {
        fill: #e7e7e7;
      }

      .cls-24 {
        fill: #f6c06d;
      }
    </style>
  </defs>
  <path class="cls-3" d="M398.26,412.32c-.34.05-.61.21-.8.49-.23.21-.46.42-.69.63-1.04,1.03-2.08,2.06-3.12,3.09-.45.53-.91,1.06-1.37,1.59-3.66,4.12-8.51,6.04-13.88,7.42.54,5.32,1.16,10.67,1.59,16.03.23,2.85,1.36,4.07,4.39,3.81,3.8-.33,7.63-.25,11.45-.34,5.7,0,11.4,0,17.09,0,31.71,1.49,62.89,6.33,93,16.42,18.04,6.05,35.08,14.3,48.58,28.48,7.86,8.26,9.34,14.24,4.95,24.73-5.69,13.59-15.44,24.26-25.21,34.91-.22-.22-.45-.44-.68-.65.5-1.03.78-2.27,1.53-3.06,6.66-6.96,11.77-15.09,17.39-22.84.74-1.48,1.48-2.96,2.22-4.44,6.74-13.39,7.02-20.08-7.27-32.07-11.39-9.57-25.1-15.06-38.67-20.6-14.86-6.06-30.38-9.95-46.17-12.95-11.92-2.26-24.04-3-35.92-5.22-8.55-1.6-14.55.93-19.17,7.84-1.74,2.6-3.53,5.18-5.05,7.91-6.64,11.97-10.18,24.84-12.44,38.36-2.78,16.66-.62,32.75,3.6,48.67,3.1,11.69,8.94,22.3,15.44,32.49.29.31.57.62.86.93l.05.06c.33,1.11,1.03,1.37,2.05.87.1.31.31.52.63.62,2.37,6.29,7.73,9.87,12.68,13.78,1.68,1.33,3.54,2.38,4.05,4.67-2.53-1.58-5.07-3.17-7.6-4.75-15.78-13.52-25.53-30.83-30.64-50.65-9.36-36.29-3.78-70.07,19.57-101.36h-23.91c-2.97-.52-5.57-.21-6.9,3.02l-.27-1.39-.57-1.54c-2.34-8.9-3.68-17.85-2.24-27.09,1.35-8.66,4.12-17.06,4.27-25.94.15-9.14-.6-18.07-4.09-26.54-2.47.44-1.91,3.58-4.28,3.5,4.04-9.99-3.15-30.46-12.35-35.91-1.85-1.1-2.96.41-4.43.21.38-1.63,1.9-2.24,2.95-3.25,13.91-13.33,23.18-28.64,21.01-48.88.3,0,.6,0,.89-.02.05.68.11,1.36.16,2.04-.11,1.13-.02,2.2.87,3.05.62,5.05-.49,9.88-1.71,14.73-1.4,5.56,2.08,10.24,8.12,11.04,1.11-2.19.36-4.58.71-6.85,2.63.68,2.35,2.89,1.58,4.35-2.8,5.3.4,9.94.84,15.01,2.15-.52,2.61-2.39,3.93-3.28,1.6-1.08,2.99-1.75,3.56.94-3.91,1.3-4.97,3.4-2.4,7.06,1.79,2.56,3.24,5.38,4.65,8.19,2.79,5.57,5.14,11.36,3.03,17.67-1.42,4.25-1.8,7.88,2.1,11.08,1.22,1,1.75,2.78,1.94,4.5,1.05,9.48-.59,18.2-7.51,25.25-2.56,2.61-4.46,5.13-2.76,9.79,5.38-4.35,11.41-6.54,15.19-12.19,6.6-9.84,11.57-20.41,14.88-31.71,1.66-5.66,3.5-11.38,1.97-17.58-1.02-4.14-5.02-6.14-6.24-9.98,5.81.38,2.07-4.11,3.14-6.15,1.36-.22,2.26,1.48,3.92.83.09-.88.2-1.84.27-2.81,1.04-14.36-4.1-27.2-10.19-39.68-2.2-4.5-5.03-8.91-9.88-11.31h0c-.31-2.56-2.08-3.82-4.27-4.69l-.02-.02c-.24-.99-.94-1.33-1.88-1.31-.33-.2-.66-.41-.99-.61-.34-1.21-1.13-1.41-2.21-1-.23-.21-.44-.19-.64.05-2.16-4.1-6.49-4.46-10.2-5.77-2.02-.72-1.82,1.22-2.08,2.42-1.61.16-3.22.32-5.14.51.47-3.94-1.82-6.49-5.16-6.97-5.28-.76-10.27-3.36-15.78-2.61,3.35-2.15,7.51.07,10.96-1.78-1.29-3.2-1.23-3.33-4-4.71-21.81-10.86-43.96-12.92-66.55-2.41,8.97-13.1,16.94-26.62,20.47-42.41,4.07-18.16-1.02-38.63-23-46.34-7.34-2.58-7.23-2.89-12.32,3.2-.74.89-1.56,1.71-2.34,2.56-.28-.31-.55-.62-.83-.92,5.43-6.04,7.7-12.49,3.23-20.21-4.01-6.93-9.18-11.86-17.59-12.38-2.55,9.19,1.28,12.89,11.82,11.86,1.98,3.17,2.62,6.69,2.53,10.4-.15,6.37-4.83,10.01-10.87,8.3-7.23-2.04-11.87-6.67-14.21-13.88-1.07-3.3-.61-6.76-1.38-10.31-4.86.73-8.56,3.37-12.66,4.91-2.39.9-3.53,2.87-3.95,5.31-.53-.34-1.07-.69-1.6-1.03-.16-.2-.29-.41-.39-.65-.21-.19-.46-.3-.74-.32-.38-.05-.76-.1-1.14-.15-2.02-1.2-4.02-1.24-6.02.06-3.02,1.02-6.04,2.04-9.06,3.06-4.16-4.46-9.84-5.01-15.36-6,.96-3.34-1.15-4.91-3.75-5.64-1.66-.46-3.47.93-3.56,2.54-.12,2.24-1.16,5.43,2.81,5.93.55,2.24-3.07,2.73-2.13,5.13-.95,2.91-.73,5.77.23,8.71,1.06-.21,1.98-.4,2.9-.59.02.37.05.74.07,1.1,2.24,3.19,2.77,7.14,4.5,10.48,3.08,5.94,8.28,6.46,13.17,1.67,6,8.43,8.58,17.37,5.03,27.49-1.04.96-2.08,1.91-3.12,2.87-7.97,3.34-14.8.92-21.23-4.04-6.39-4.94-8.01-12.33-10.01-20.79-1.05,1.58-1.41,2.13-1.78,2.69-5.49,8.29-11.2,16.36-19.72,21.95-1.87,1.22-2.86,3.18-2.92,5.5-.39.37-.79.75-1.18,1.12-3.48-1.28-6.47.42-7.8,4.6-1.37,4.33-.96,8.75-.64,13.21.4,5.57,3.31,10.51,3.64,16.06-6.33-9.7-4.8-20.84-5.09-31.59-4.59-.32-8.88-1.48-9.71,4.47-1.69,15.36,1.96,29.19,11.72,41.32,3.22,4,6.16,8.17,8.05,13.03,1.76,4.51.98,8.72-2.09,12.02-2.77,2.97-6.63,3.02-10.65,1.99-6.63-1.71-11.92-5.57-17.09-9.73-1.37-1.89-2.74-3.78-4.11-5.66,2-.51,2.85.91,4.03,2.13,4.27,4.4,9.08,8.18,14.61,10.85,6.83,3.3,13.69,0,14.27-6.93.31-3.7-1.58-6.89-3.88-9.85-7.19-9.29-13.23-19.13-15.87-30.86-1.5-6.63-1.05-13.2-.9-19.81.04-2-.21-3.57-2.08-4.62-1.88-1.07-3.21-.29-4.94.7-2.92,1.66-3.97,4.22-4.4,7.13-1.31,8.82-2.61,17.64-3.68,26.51-.97,8.01-3.74,15.96,2.77,22.99.33.36.11,1.23.15,1.86-1.98-.29-2.36-3.31-4.8-2.91-.86,17.29,15.37,30.41,36.68,29.72-1.81,1.4-4.22,2.44-5.33,4.27-6.29,10.37-15.91,10.51-26.23,9.22-7-.88-13.15-4.54-20.04-5.77-6.25-1.11-12.29-1.15-17.43,3.08-3.68,3.03-3.4,5.01.2,7.78,9.32,7.17,19.83,10.62,31.54,11.88,11.23,1.21,21.54-.84,30.96-6.42,5-2.96,9.71-6.96,11.76-12.97,2.34-6.86.63-10.32-5.46-11.04,4.75-1.64,7.73-5.5,11.06-8.9-2.11,4.59.11,7.05,4.23,8.56,1.24.46,2.49.9,3.74,1.34,15.73,5.47,31.95,6.53,48.44,5.74,4.62-.22,9.7-.89,12.53,4.39-1.8,1.6-2.99-1.98-4.84-.47-.87,1.27-.9,2.63.06,4,2.67.83,4.59-.03,5.76-2.57,1.97,1.56,4.37,2.1,6.69,2.81-4.07.48-8.16.81-12.2,1.49-8.67,1.46-13.75,6.27-14.45,13.39v6.33c-1.61-.56-2.66-2.98-5.02-.62-7.91,7.93-17.84,13.17-27.01,19.4-7.42,5.04-12.96,11.27-15.11,20.15l-.96-1.21v-3.63c-11.18,7.89-18.86,23.3-15.39,30.67,3.19-.26,4.34-4.54,8.16-4.28-1.38,3.01-3.8,5.24-4.25,8.51,3.67,2.2,6.81-.19,10.48-.9-1.59,3.07-3.67,5.56-3.17,9.04,3.05,1.68,6.02,2.42,9.28.3,3.42-2.22,7.39-2.8,11.33-3.51,9.98-1.79,19.75-4.18,28.8-9.06,4-2.15,5.33-5.07,4.52-9.38-1.3-6.92-1.08-13.95-.39-20.87,1.04-10.55,2.61-21.05.66-31.65.31.03.62.09.92.18.15.38.3.76.45,1.15l-.05.29c1.57,7.35.53,14.74.41,22.12-2.51,13-1.79,25.93.79,38.84,1.87,9.38,6.51,17.45,11.59,25.35-3.07-.41-3.3-4.46-6.82-5-8.53,10.14-11.68,22.05-10.77,35.3.44,6.33,2.98,12.1,4.54,18.13-4.9-4.71-10.83-7.15-17.37-8.91-3.72-1.01-7.47-1.39-11.19-2.15-15.1-3.12-30.19-1.64-45.05,1.22-15.31,2.94-29.94,8.33-43.77,15.61-4.49,2.36-9.36,4.52-11.81,9.52-1.2,1.66-3.27,2.83-3.03,5.19.72,1.12,1.81.99,2.74,1.24,11.59,3.18,23.68,1.13,35.43,3.62,11.91,2.52,23.8,4.51,34.53,10.75,4.75,2.76,9.17,6.9,15.48,5.3-3.95,3.08-7.91,6.16-11.86,9.24-.07-.8-.14-1.6-.21-2.4,1.35-1.14,2.7-2.29,4.31-3.65-11.22-10.42-25.01-13.68-39.12-16.05-11.83-1.99-23.83-2.2-35.77-3.05-3.05-.22-6.74.15-8.12-3.5-1.38-3.65.98-6.22,3.34-8.75,9.08-9.74,20.9-14.54,33.19-18.32,18.14-5.58,36.55-9.61,55.73-9.5,12.99.07,25.41,2.34,37.38,7.3,0,0,.29-.08.29-.08l-.37.15c1.17-1.62.15-3.23-.12-4.79-2.57-14.83.04-28.68,8.4-41.16,1.88-2.81,2.09-4.89.95-7.68-1.35-3.31-2.78-6.62-3.77-10.05-.86-2.95-2.58-3.37-4.84-2.12-9.87,5.45-20.64,8.01-31.52,10.39-4.11.9-7.93,3.35-12.04,3.92-9.21,1.28-9.25.98-10.09-7.67-8.11-.18-14.62-10.67-10.65-19.11,3.11-6.61,6.79-12.86,11.42-18.54.53-.64,1.06-1.28,1.59-1.93,2.48-2.45,4.96-4.9,7.44-7.35.12-.23.26-.45.34-.68.01-.04-.21-.16-.33-.25,1.34.83,1.47-.11,1.58-1.08,0,0-.07.06-.07.06.97.31,1.36-.23,1.56-1.06,12.51-10.06,28.9-14.85,38.71-28.61,2.3-3.23,3.73-6.23,1.39-10-1.01-1.62-.88-3.53-.78-5.36.11-1.8.4-3.58.67-5.91-15.45-.12-30.5-1.76-44.99-8.27-.89,4.96-.68,9.64-2.35,14.01-4.58,11.97-14.44,17.03-25.91,20.08-15.85,4.21-31.38,2.5-46.38-3.37-4.23-1.66-9.51-3.83-11.41-8.19-4.38-10.04-1.19-17.76,11.71-19.24,6.44-.74,12.65,1.21,18.75,3.32,5.66,1.96,11.53,4.18,17.5,3.4,5.61-.74,11.39-2.26,16.03-6.94-3.89-3.71-9.03-3.57-12.98-6.09-2.16-1.38-4.23-2.61-5.96-4.52-4.12-4.55-9.37-7.53-14.67-10.48-5.51-3.06-9.66-7.46-12.41-13.21-3.46-7.24-9.72-12.56-13.37-19.76-5.12-10.07-7.62-20.75-9.18-31.8-2.11-14.9-.55-29.38,3.49-43.85,6.25-22.39,21.14-38.34,38.2-52.75,16.6-14.02,35.68-23.14,57.12-26.47,6.52-1.01,11.14-2.88,14.99-8.39,5.7-8.17,14.84-11.7,23.71-15.33,1.53-.63,3.02-1.35,4.52-2.03,4.92-.53,9.37-2.67,14.02-4.12,1.83-.05,3.67-.28,5.48-.11,5.23.49,10.54-.66,15.72,1.56,7.95,3.41,13.81,8.9,18.5,16.03,10.25,15.55,9.18,32.5-3,45.79-1.61,1.76-4.17,2.68-5.03,5.42,1.81,1.14,3.48,2.21,5.16,3.25,5.79,3.58,10.31,8.89,11.42,15.15,1.08,6.08,4.45,7.77,9.12,9.36,20.64,7.01,28.08,24.27,25.6,41.76-1.29,9.12-3.68,17.86-7.53,26.17-2.41,5.19-5.19,10.21-8.04,15.77,2.68-.16,4.85-.13,6.96-.45,13.51-2.05,26.87-1.34,39.98,2.41,6.24,1.78,13.17,3.9,16.79,9.12,3.92,5.65,9.34,7.88,14.83,9.3,20.04,5.17,31.65,19.22,39.33,36.88,3.38,7.75,4.56,16.6,5.28,25.21.26,3.09,1.02,6.47-.8,9.28-2.51,3.86-2.35,7.91-1.39,11.99,1.64,7.03.83,13.79-1.25,20.59-2.93,9.58-7.64,18.31-12.45,27.01-4.12,5.31-9.04,9.84-14.02,14.3-.63.48-1.27.95-1.9,1.43-.31.21-.63.42-.94.63-.35.29-.7.57-1.04.86-.18.34-.37.67-.55,1.01-1.06-.32-1.66.19-2.05,1.11ZM190.54,103.84c4.39-1.56,3.11-5.74,4.01-8.89.07-.23-.82-.91-1.36-1.11-3.37-1.27-15.18,2.13-17.57,4.99-12.91.47-24.06,5.75-34.28,13.09-7.31,5.25-15.89,9.18-20.24,17.82-3.55,2.33-5.55,6.08-8.31,9.13-14.18,15.66-21.35,34.53-23.2,55.08-1.8,20.01,2.66,39.13,12.95,56.68,1.23,2.1,2.56,3.62,5.02,4.49.26-1.38.48-2.51.7-3.64.3,1.1.66,2.2.89,3.31,1.72,8.55,5.38,15.76,13.46,20.19,1.03-1.9.61-3.52.36-5.16-1.51-9.75-1-19.6.69-29.15,2.02-11.35,6.38-22.11,11.69-32.44,3.73-7.25-.72-14.37-8.98-14.91-2.51-.17-3.95.64-4.78,3.18-.8,2.45-1.03,5.3-3.45,7,1.82-4.85,1.44-9.22-2.07-13.4-2.9-3.45-4.51-7.66-4.91-12.22-.9-10.21,2.32-19.38,6.65-28.45,3.11-6.52,8.28-11.62,11.37-18.08,1.29-.53,2.59-1.07,3.88-1.6-.86,2.54-2.29,4.73-4,6.76-5.59,6.61-9.58,14.15-12.82,22.12-1.41,3.48-1.67,6.94-.45,10.66,4.13,12.53,12.16,21.33,24.21,26.69,10.58,4.71,22.01,5.6,32.27-3.49,8.44-7.47,14.78-16.13,19.65-25.84,3.57-7.13,6.93-14.61,6.25-23.21-.31-3.98-2.77-7.08-3.1-10.88,1.99-.02,2.41,2.05,3.81,2.87,2.99,1.75,9.05-.11,8.85-3.03-.4-5.85-4.96-9.84-7.38-14.82-1.29-2.65-4.31.34-6.35-.84.21-4.67.72-9.41-3.43-12.92ZM286.98,101.2c.02-8.95-1.55-14.5-7.03-22.48-9.13-13.29-19.51-16.99-32.32-14.6-12.98,2.42-24.59,8.59-35.97,15.09-4.03,2.3-6.49,4.89-7.32,10.36-1.74,11.4-1.48,22.02,4.08,32.31,5.23,9.69,12.42,15.94,24.16,15.94,6.2,0,11.75-2.03,17.32-4.07,10.19-3.74,18.49-10.82,27.76-16.16,7.15-4.12,10.1-9.61,9.32-16.39ZM216.07,187.97c0-.94.19-2.1-.04-3.18-.67-3.27-2.63-5.65-5.81-6.62-1.21-.36-2.33.48-2.62,2.2-.64,3.91,1.4,6.26,4.38,8.01,1.08.64,2.52.53,4.08-.42ZM272.42,146.58c-1.24,3.81.27,5.82,3.38,6.74,1.32.39,2.17-.5,2.19-1.92.04-3.62-2.05-4.87-5.57-4.82Z"/>
  <path class="cls-3" d="M434.07,620.44c-1.07.51-2.14,1.02-3.22,1.52-11.08,4.4-22.13,8.89-33.26,13.18-16.56,6.39-33.36,11.91-50.61,16.27-15.43,3.9-31,5.97-46.84,6.11-6.64.06-11.42,2.13-15.48,7.88-8.93,12.68-21.68,20.91-35.56,27.28-33.52,15.37-68.05,15.78-103.12,6.32-3.37-.91-6.54-2.38-9.38-4.5-4.9-3.66-4.67-7.47.99-10.09,7.06-3.28,14.42-5.82,21.38-9.39,14.91-7.65,28.06-17.55,40.3-30.05-8.95-2.65-16.03-8.51-25.47-8.2-7.58.25-13.07-4.22-17.86-9.56-9.58-10.68-13.47-23.68-15.24-37.76-8.29-1.22-16.52-.13-24.72.84-8.92,1.06-17.82,2.21-26.76.52-2.56-.48-4.07.65-5.8,2.97,8.26,3.5,16.68,4.56,25.16,5.22,3.64.28,7.32-.14,10.93.72,5.14,1.22,6.04,3.53,2.78,7.64-1.42,1.8-3.11,3.38-5.33,5.77,5.72-.38,9.85-2.87,14.29-4.23.32-.1.6-.29.92-.38,3.24-.99,7.31-4.91,9.61-1.02,2.36,3.99-1.42,7.74-4.72,10.56-1.26-.74.67-2.25-.98-3.1-16.19,9.57-33.12,16.19-52.8,9.49,2.32-5.9,9.14-5.98,11.76-11.44-7.48-.65-14.58-1.24-21.68-1.9-11.07-1.04-21.94-2.87-32.01-7.96-5.32-2.69-5.66-4.71-1.04-8.4,1-.8,2.41-1.06,3.5-1.77,4.29-2.76,10.43-1.86,13.81-6.62-3.04-3.12-7.93-2.18-10.78-5.39,2-2.55,4.23-2.01,6.34-1.92.3,1.05-1.94,1.04-1.06,2.3,3.27,2.13,8.52,1.03,9.83,6.23-12.29,4.13-20.84,8.73-22.85,12.44,19.07,9.74,39.5,11.17,60.87,9.95-3.11,6.01-8.56,8.95-13.46,12.72,10.57,5.87,40.65.03,50.31-12.48-8.21.83-15.14,6.73-23.87,5.74.47-4.28,3.58-5.65,5.76-7.79,1.28-1.26,2.79-2.7,2.18-4.74-.61-2.05-2.66-1.71-4.23-1.84-3.31-.28-6.64-.31-9.96-.54-7.8-.55-15.54-1.49-22.88-4.42-3.03-1.21-3.86-2.93-1.28-5.56,1.87-1.9,3.58-3.92,3.47-6.89-.07-2.04,1.71-2.61,3.04-3.58,4.83-3.54,10.64-4.96,16-7.16-.12-1.95-1.44-2.52-2.41-3.36-1.5-1.3-3.19-2.46-2.84-4.88.41-2.84,2.98-2.31,4.66-2.87,6.11-2.05,12.61-1.9,19.41-2.55-2.42-3.45-6.46-2.44-8.83-4.66,2.71.23,5.43.46,8.26.71-10.44-17.65-59.12-19.38-73.74,2.74,1,1.42,2.36,2.1,4.08,2.55,4.31,1.14,8.55,2.59,12.84,3.83,1.35.39,2.58.68,2.61,2.44.04,2.15-1.65,2.29-3.05,2.54-1.46.26-2.99.16-4.48.28-11.95,1-23.62,3.11-34.4,8.77-1.08.57-2.26.84-2.12,2.31.12,1.22,1.1,1.53,2.15,1.64,2.27.22,3.18,1.42,2.73,3.57-4.46,1.99-8.74,4.03-13.12,5.83-4.64,1.9-8.53,4.83-12.83,8.56,11.25,7.31,23.41,11.13,36.11,13.14,12.82,2.03,25.82,2.53,38.88,3.25-7.9,4.67-16.87,5.87-25.71,8.59,1.52,2.95,3.93,4.26,6.47,5.37,6.47,2.82,13.33,3.97,20.3,4.35,17.52.96,33.85-2.73,48.73-12.37,2.74-1.77,4.61-4.99,8.32-5.21-2.24,5.28-6.92,8.06-11.56,10.58-20.34,11.01-41.73,12.59-63.85,6.55-3.6-.98-6.7-2.93-9.43-5.39-3.64-3.28-3.26-5.4,1.31-7.03,3.39-1.21,6.92-2.01,11.79-3.39-14.56-.55-27.51-2.47-40.16-6.16-7.8-2.27-15.51-4.84-22.49-9.14-3.53-2.17-3.66-4-.07-6.09,7.29-4.24,14.72-8.22,22.12-12.32-.08-.13-.17-.42-.36-.55-1.54-1.02-4.5-.18-4.61-2.92-.09-2.19,2.1-3.11,3.69-4.17,9.48-6.36,20.4-8.21,31.37-9.89,2.46-.38,4.93-.68,8.02-1.1-4.07-2.97-8.73-2.68-12.57-4.66-1.52-.78-3.7-.3-3.86-2.79-.14-2.14.14-4.01,2.05-5.63,18.1-15.35,38.47-17.25,60.31-10.28,6.01,1.92,11.79,4.51,16.76,8.54,3.21,2.61,6.11,5.47,6.66,10.35-9.77,1.04-19.47-.35-28.82,2.23,1.5,5.5,3.75,6.87,8.84,5.87,9.57-1.88,18.79-5.51,28.69-5.68.82.08,1.65.17,2.47.25-1.37.54-2.7,1.38-4.12,1.59-14.04,2.06-27.57,6.11-40.92,10.7-3.56,1.22-7.67,2.34-9.52,6.42-3.05,2.4-.21,2.73,1.25,3.34,8.39,3.55,16.79,1.47,25.19-.07,6.72.68,13.11-1.84,19.74-2.08,9.09-.33,18.09-1.78,27.16-2.5,16.01-1.27,31.94-3.47,48.04-3.51,4.33-.01,8.6-.95,12.84-1.15,9.43-.43,18.63-2.89,28.08-2.83-4.15,2.65-8.85,3.57-13.61,3.98-20.85,1.77-41.82,1.67-62.61,4.12-4.56.54-9.59-.57-13.64,2.76-.68,1.15.38,2.68-.76,3.74-1.04-1.55-.6-4.33-3.22-4.44-4.43-.17-9.62-1.55-12.98,1.62-3.22,3.04-.37,7.47.41,11.25.06.31.33.57.5.86,1.84,11.95,7.42,21.91,16.36,29.94,3.83,3.45,8.54,4.91,13.74,5.06,2.45.07,3.67-.78,3.85-3.18,5.11,4.11,9.97,8.53,16.48,10.55,4.24,1.32,7.62,1.6,11.01-2.27,3.03-3.47,7.27-5.69,12.1-6.08,12-.96,23.53,2.44,35.26,3.97-6.26-.12-12.39-.37-18.68-1.5-9.31-1.68-19.18-2.18-27.17,5.1-6.46,5.88-12.61,12.15-19.48,17.5-7.77,6.05-15.32,12.47-24.24,17-7.64,3.88-15.37,7.48-23.32,10.69-1.64.66-4.47.81-4.3,4.01.16,2.93,2.72,2.99,4.35,4.18,1.98,1.48,4.12,2.54,6.55,3.14,15.22,3.79,30.73,5.37,46.34,4.87,17.64-.57,34.68-4.39,51.16-10.91,19.47-7.7,34.79-20.23,45.86-37.97.75-.26,1.49-.53,2.24-.79-1.04,3.83,1.96,2.6,3.56,2.67,21.78.93,42.73-3.74,63.45-9.72,28.09-8.11,54.95-19.48,81.64-31.27.92-.41,1.86-.78,1.79-2.22-1.25-.88-2.57-1.82-3.89-2.75,4.53-.46,9.13,1.24,13.63-1.26,22.17-12.31,43.11-26.3,62.42-42.82,3.14-2.69,5.45-6.61,9.68-8.01l.96.82c-15.64,16.22-33.54,29.56-52.65,41.38-12.84,7.93-26.26,14.75-39.81,21.34Z"/>
  <path class="cls-2" d="M143.4,565.19c-.82-.08-1.65-.17-2.47-.25-.19-7.31,2.05-13.98,5.41-20.33,2.56-4.85,6.31-8.47,11.59-10.2,5.44-1.78,9.82-4.56,11.58-10.43.53-1.76,1.88-3.04,3.43-4.05.07.8.14,1.6.21,2.4-3.22,4.54-5.19,9.69-7.23,14.8-.35,0-.71,0-1.06,0-.87-2.43-2.51-1.52-4.07-.94-11.22,4.24-18.29,16.7-16.38,28.88-.34.04-.67.08-1.01.13Z"/>
  <path class="cls-6" d="M180.56,358.38c-2.48,2.45-4.96,4.9-7.44,7.35.78-4.17,1.11-8.79,7.44-7.35Z"/>
  <path class="cls-6" d="M182.15,356.37c-.11.97-.24,1.91-1.58,1.08.53-.36,1.05-.72,1.58-1.08Z"/>
  <path class="cls-6" d="M183.64,355.37c-.2.83-.59,1.37-1.56,1.06.52-.35,1.04-.71,1.56-1.06Z"/>
  <path class="cls-3" d="M528.86,555.19c-.77.85-1.55,1.69-2.32,2.54-.32-.27-.64-.55-.96-.82.43-1.34,1.47-1.94,2.74-2.26.18.18.36.36.54.54Z"/>
  <path class="cls-3" d="M532.26,551.58c-.63.74-1.25,1.49-1.88,2.23-.25-.29-.5-.57-.75-.85.67-.66,1.35-1.32,2.02-1.98.2.21.4.41.61.6Z"/>
  <path class="cls-3" d="M530.38,553.82c-.51.46-1.01.91-1.52,1.37-.18-.18-.36-.36-.54-.54.44-.56.87-1.13,1.3-1.69.25.29.5.57.75.86Z"/>
  <path class="cls-3" d="M533.21,550.55c-.32.34-.63.69-.95,1.03-.21-.2-.41-.4-.61-.6.33-.34.65-.67.98-1.01.19.19.39.39.58.58Z"/>
  <path class="cls-3" d="M534.25,549.59c-.35.32-.69.64-1.04.97-.19-.19-.39-.39-.58-.58.31-.35.63-.69.94-1.04.23.21.46.43.68.65Z"/>
  <path class="cls-23" d="M165.92,537.12c2.04-5.11,4.01-10.26,7.23-14.8,3.95-3.08,7.91-6.16,11.86-9.24,0,0-.03.04-.03.04,5.16-3.44,9.35-8.17,14.9-11.08,6.01,1.1,12.54,1.37,17.18,5.77,7.95,7.52,17.43,7.11,27.08,6.14,2.05-.21,4.85.11,5.91-2.71,12.41-1.44,24.07-5.41,35.29-10.74,4.77-2.27,9.4-4.83,12.38-9.49,9.72.71,15.53,7.47,21.59,13.88,3.19,3.36,6.77,5.93,11.79,5.17,10.25,2.01,19.83-.05,28.94-4.84l-.09.07c2.03.14,3.31-1.33,4.77-2.31,8.04-5.36,11.74-14.1,16.91-21.72,4.33-6.38,5.16-12.89,2.67-20.21-1.39-4.08-3.43-8.22-2.45-12.99,1.75-.31,3.36-.59,4.97-.87h23.91c-23.35,31.29-28.93,65.07-19.57,101.36,5.11,19.82,14.86,37.13,30.64,50.65-6.59,3.1-13.14,6.25-19.8,9.21-24.28,10.81-50.09,15.29-76.1,18.4-18.62,2.23-37.42,1.9-56.2.38-18.14-1.47-35.72-5.35-53.09-10.47-17.48-5.16-33.75-13.03-49.3-22.46-1.47-.89-3.24-2.91-5.08-.3-.3-2.67.3-5.45-.98-8,4.04-3.33,9.07-2.22,13.64-2.76,20.79-2.46,41.77-2.35,62.61-4.12,4.76-.4,9.46-1.33,13.61-3.98,0,0-.15.06-.15.06.33-.06.67-.12,1-.19,4.81-1.03,8.98-3.5,13.14-5.97,2.66-.5,5.15-1.95,4.68-4.7-.56-3.3-3.34-5.02-6.84-5.1-12.03-5.41-24.65-5.54-37.41-4-10.16,1.23-20.3,2.63-30.45,3.95-10.74-.14-21.32,1.36-31.87,3.12-4.28-2.75-1.36-6.92-2.04-10.38l-.07-.22c1.61-4.86,3.21-9.71,4.82-14.57Z"/>
  <path class="cls-11" d="M412.68,585.51c-.32-.1-.53-.31-.63-.63-.68-.29-1.37-.58-2.06-.87,0,0-.05-.06-.05-.06-.29-.31-.57-.62-.86-.93-6.5-10.19-12.34-20.81-15.44-32.49-4.23-15.92-6.38-32.01-3.6-48.67,2.25-13.52,5.8-26.38,12.44-38.36,1.51-2.73,3.3-5.31,5.05-7.91,4.62-6.9,10.63-9.44,19.17-7.84,11.88,2.22,24,2.96,35.92,5.22,15.79,3,31.3,6.88,46.17,12.95,13.57,5.53,27.28,11.03,38.67,20.6,14.29,11.99,14.01,18.69,7.27,32.07-.74,1.48-1.48,2.96-2.22,4.44-3.31-.33-4.95,2.31-7.09,4.02-9.4,7.49-18.35,15.47-28.75,21.76-13.57,8.21-27.73,15.19-41.89,22.25-5.63,2.8-11.7,4.48-17.35,6.97-7.47,3.3-14.93,6.51-22.95,7.5-7.17.88-14.55,4.34-21.78-.02Z"/>
  <path class="cls-16" d="M162.09,243.51c-.33-5.55-3.24-10.49-3.63-16.06-.32-4.46-.73-8.88.64-13.21,1.32-4.18,4.32-5.88,7.8-4.6,4.92,9.01,12.85,13.2,22.79,13.11,10.54-.09,20.46-2.58,28.21-10.52,0,0-.11.1-.11.1,4.32-1.73,7.58-4.51,9.06-9.07l-.06.08c2.1-.07,2.35-1.39,2.06-3.06,0,0-.04.09-.04.09.42-.18,1.01-.25,1.23-.57,4.81-7.13,4.69-21.1-.25-28.27-.4-.58-.79-1.56-1.86-.87v-.02c.15-2.82-.63-4.9-3.96-4.92l-.09-.08c.06-2.79-1.57-3.35-3.92-2.98,0,0,0,0,0,0-.75-4.14-6.02-2.26-7.49-5.68,2.39-2.47,5.2-4.32,8.38-5.63,1.18-.06,1.97-.57,2.1-1.83,3.02-1.02,6.04-2.04,9.06-3.06,2.01-.02,4.01-.04,6.02-.06.38.05.76.1,1.14.15.19.24.44.35.75.32.1.24.23.45.39.65-.93,13.64,2.7,19.51,15.31,24.74,10.98,4.56,22.82,1.9,30.21-6.8.78-.85,1.6-1.68,2.34-2.56,5.09-6.09,4.97-5.77,12.32-3.2,21.98,7.71,27.06,28.18,23,46.34-3.53,15.79-11.5,29.31-20.47,42.41-.68,1.24-1.36,2.48-2.03,3.72-.35.43-.7.85-1.05,1.28l.03-.05c-6.21,6.89-11.78,14.29-16.89,22-2.39,3.62-3.25,7.82-1.04,12.06,0,0-.03-.06-.03-.06-.69,1.03-1.35,2.07-1.02,3.4-2.25,1.81-4.66,3.35-6.87,5.28-6.56,5.72-12.34,12.78-21.36,15.1-2.33-.71-4.72-1.26-6.69-2.81l.03.06c-.06-.65-.32-1.1-1.07-1.06l.06.04c-2.83-5.28-7.9-4.61-12.53-4.39-16.49.8-32.71-.27-48.44-5.74-1.25-.43-2.49-.88-3.74-1.34-4.12-1.51-6.34-3.97-4.23-8.56,0,0-.08.08-.08.08,1.96-1.87,2.03-4.3,2.11-6.78.52-14.97-8.95-25.61-16.09-37.26l.03.09ZM270.11,218.65c-2.59-1.2-3.97.86-5.66,2.1-13.54,7.76-28.19,12.51-43.43,15.3-9.78,1.79-19.69,2.86-29.56,4.07-3.94.48-4.32,2.59-2.94,5.5.84,1.76,2.06,3.44,3.44,4.83,5.88,5.98,12.68,10.7,20.42,13.99,21.91,9.31,42.88,5,63.45-4.53,1.88-.87,4.12-1.38,5.2-3.52l-.08.08c6.44-2.82,11.29-7.56,14.93-13.37,3.12-4.99,1.92-8.94-2.81-12.45-2.58-1.91-5.9-3.15-6.78-7.14,4.95-3.26,4.28-7.71,2.2-12.28-1.65-3.62-1.74-6.45,1.52-9.67,4.04-3.99,6.4-9.29,7.57-14.93,1.24-5.98.76-11.62-4.03-16.11-2.32-2.17-2.88-2.23-6.61-.86,5.03,2.59,8.64,5.86,8.22,11.99-.25,3.73-1.28,7.12-2.72,10.51-2.77,6.53-7.32,11.75-12.06,16.84-.45.49-1.09.96-.21,1.63-4.65,1.05-7.68,4.12-10.04,8.03ZM258.53,205.02c-1.92-3.01-3.01-5.26-6.05-6.64-.15,4.14,1.74,5.66,6.05,6.64ZM268.42,184.73c2.37,1.87,4.14,2.74,6.78,2.41-1.61-2.52-3.16-3.94-6.78-2.41Z"/>
  <path class="cls-16" d="M372.73,371.22c2.37.08,1.81-3.06,4.28-3.5,3.49,8.47,4.25,17.4,4.09,26.54-.15,8.88-2.92,17.28-4.27,25.94-1.44,9.24-.1,18.19,2.24,27.09.19.51.38,1.03.57,1.54.09.46.18.93.27,1.39-.06,3.21,1.49,6.01,2.31,8.99,1.5,5.49,2.77,11.09.25,16.46-3.8,8.09-8.74,15.49-14.79,22.16-2.43,2.68-6.06,4.06-7.74,7.47,0,0,.09-.07.09-.07-4.86.95-9.7,2.04-14.6,2.79-2.21.34-4.62,1.35-6.78-.06-2.12-1.38-.34-3.93-1.15-5.93-2.66,1.47-.65,4.31-2.27,5.84-7.94.06-9.64-4.23-6.57-16.64-3.63,1.27-2.59,5.75-5.19,7.69-3.64-2.89-4.54-7.86-2.37-12.43,5.05-10.62,12.44-14.9,20.03-13.32-3.45.09-8.69-2.21-14.25-2.9l.03.02c-.25-2.27-1.13-3.45-3.52-2.05-1.11-.54-2.04-1.25-2.47-2.47,1.13-2.35-.17-3.57-2.09-4.51,0,0,.03.04.03.04.53-1.66-.66-2.78-1.3-4.07-2.17-7.36-2.8-14.78-1.87-22.46.41-3.38,1.8-6.73,1.02-10.24,2.2-2.21,1.15-5.79,3.34-8.01,2.62-4.44,5.24-8.89,7.86-13.33l-.07.08c2.95-1.91,5.74-3.96,7-7.45,2.7-1.93,5.81-3.33,7.87-6.1,5.61-.89,10.12-3.85,14.25-7.54,4.07-2.97,9.56-3.58,12.89-7.77.96-1.06,1.92-2.13,2.87-3.19Z"/>
  <path class="cls-17" d="M162.25,593.97c1.84-2.6,3.6-.59,5.08.3,15.55,9.43,31.81,17.3,49.3,22.46,17.37,5.12,34.95,9.01,53.09,10.47,18.77,1.52,37.58,1.85,56.2-.38,26.01-3.12,51.82-7.59,76.1-18.4,6.66-2.96,13.21-6.11,19.8-9.21,2.53,1.58,5.07,3.17,7.59,4.75,2.18,1.01,3.92,2.97,6.53,3.11,1.16.99,2.4,1.81,3.97,1.97l-.04-.03c1.32.94,2.65,1.87,3.89,2.75.07,1.44-.87,1.81-1.79,2.22-26.69,11.8-53.55,23.16-81.64,31.27-20.72,5.98-41.67,10.65-63.45,9.72-1.59-.07-4.6,1.16-3.56-2.66,0,0-.11-.02-.11-.02,1.88-1.53,3.02-3.55,3.83-5.79l-.04.07c3.18-5.17,2.6-10.15-1.49-10.33-6.69-.29-13.49-1.18-20.12.77-7.12,0-14.25-.01-21.37-.02-11.73-1.53-23.25-4.93-35.26-3.97-4.83.39-9.08,2.61-12.1,6.08-3.38,3.88-6.76,3.59-11.01,2.27-6.52-2.02-11.38-6.44-16.48-10.55,0,0,0,.13,0,.13-.85-1.16-1.03-2.97-2.98-3.07l.06.09c.57-1.19-.32-1.58-1.11-2.02l.03.04c-.11-.59-.33-1.07-1.06-1.05l.06.1c-.35-.3-.71-.59-1.06-.89-4.58-8.96-7.97-18.37-10.82-28l-.03-2.19Z"/>
  <path class="cls-16" d="M379.91,283.4c2.17,20.23-7.1,35.54-21.01,48.88-1.05,1.01-2.57,1.62-2.95,3.25,0,0,.08-.16.08-.16-.64.09-1.1.37-1.09,1.1l.09-.11c-.93.13-1.02.86-1.12,1.58.11.34.08.66-.09.97-.16-.14-.29-.3-.4-.48-2.52-.42-3.87,1.61-5.56,2.79-8.78,6.1-18.23,10.77-28.55,13.58-1.87.51-4.05,1.38-5.67-.2-1.65-1.61.58-3.25.66-4.99-2-.41-3.54.91-5.31,1.15-1.66.23-3.43.67-4.7-.68-1.36-1.44-.37-3.1.12-4.65.45-1.44,2.15-2.72.68-4.46-6.65,2.29-7.83,1.2-6.67-5.86.98-5.96,3.01-11.52,6.08-16.69,2.31-3.9,4.8-7.69,7.21-11.53-4.5,2.74-5.04-2.92-7.82-3.46l.05.06c.45-3.74-1.61-6.78-3.36-9.61-1.73-2.81-3.85-6.06-8.17-5.45l.13.05c-3.34-2.14-7.02-.92-10.56-1.07,0,0,.03.06.03.06.87-1.6-.9-3.62,1.31-5.54,7.75,1.3,16.8.06,22.43,8.98,6.85-7.28,14.69-13.85,23.37-19.39.3,0,.59-.05.88-.13l.48.12.45-.2c12.42-5.83,25-8.19,37.99-1.79l-.04-.05c1.44,1.62,2.76,3.38,4.99,4.01h0c.61,2.24,2.02,3.84,3.99,4.99h0c-.15.91-.01,1.69,1.03,2.01l-.03-.03c-.17,1.18.17,2.17,1.07,2.96ZM329.95,289.42c2.83-1.83,5.66-3.66,8.49-5.5-2.99-.42-5.91,1.75-7.32-4.3-.6,4.49-.95,7.07-1.29,9.66-.15.18-.3.37-.44.55.19-.14.38-.28.57-.42ZM323.49,294.94l-1.03-.86c-3.88,2.8-7.67,5.68-10.38,11.37,4.48-4.13,7.94-7.32,11.41-10.52Z"/>
  <path class="cls-16" d="M229.03,471.7c-1.56-6.03-4.1-11.8-4.54-18.13-.92-13.25,2.24-25.16,10.77-35.3,3.52.54,3.75,4.59,6.82,5,0,0-.07-.08-.07-.08-.14.85,0,1.41,1.06,1.07l-.06-.06c-.14,1.5-.08,2.8,2.04,2.03h0c-1.2,1.92.83,2.5,1.63,3.29,7,6.9,15.03,12.43,24.4,15.4,5.55,1.76,9.84,3.8,9.9,10.37,1.3,7.7,4.18,14.47,11.06,18.89l-.03-.03c.2,2.78,1.66,4.71,4.03,6.04l-.04-.04c-.62,1.75.51,3.22.76,4.82.49,3.12.17,6.19-2.46,8.16-3.3,2.47-6.53,5.23-10.56,6.5-9.65,3.03-19.27,6.2-29.04,8.83-4.89,1.31-10.06,1.54-14.54.91-1.95-2.45.59-4.1-.44-7.69-1.62,5.22-2.64,10-8.33,6.71-1.61-3.24,1.54-5.3,2.69-8.62-3.16,1.18-3.28,3.85-5.69,6.2,3.74-15.78,15.24-17.97,27.7-19.24-5.73.53-10.12-3.16-15.29-3.67-.92-.45-1.85-.91-2.77-1.36-1.55-3.45-4.16-5.83-7.5-7.49-.5-.83-1.01-1.66-1.51-2.48Z"/>
  <path class="cls-16" d="M227.99,335.35c1.95,10.6.38,21.1-.66,31.65-.68,6.93-.91,13.95.39,20.87.81,4.31-.52,7.23-4.52,9.38-9.05,4.87-18.82,7.27-28.8,9.06-3.93.7-7.91,1.29-11.33,3.51-3.26,2.12-6.23,1.38-9.28-.3-.5-3.48,1.58-5.97,3.17-9.04-3.67.71-6.81,3.09-10.48.9.45-3.27,2.87-5.5,4.25-8.51-3.81-.26-4.97,4.02-8.16,4.28-3.47-7.37,4.21-22.79,15.39-30.67,0,1.36,0,2.49,0,3.63-.95,1.47-.95,3.13-.92,4.77.03,1.88-.66,4.11,2.11,4.83,2.53.66,5.14,1.79,6.86-1.42,1.75-.41,2.63-1.83,3.62-3.12,3.36-2.85,8.41-3.23,10.61-7.9-3.81,2.28-7.62,4.56-11.43,6.84-.92,1.41-1.84,2.82-2.75,4.23q-6.9-.26-7.14-7.03c2.15-8.88,7.69-15.11,15.11-20.15,9.17-6.23,19.1-11.47,27.01-19.4,2.36-2.36,3.41.05,5.02.62l-.06-.08c.17,1.38.47,2.67,2.06,3.1l-.1-.04ZM185,398.37c-4.31-4.17-7.98-8.79-11.11-15.05-1.16,7.98,3.32,13.77,11.11,15.05Z"/>
  <path class="cls-8" d="M435.92,607.07c-2.6-.14-4.34-2.1-6.53-3.11-.5-2.29-2.36-3.34-4.05-4.67-4.95-3.91-10.31-7.48-12.68-13.78,7.23,4.36,14.61.91,21.78.02,8.02-.99,15.47-4.2,22.95-7.5,5.65-2.5,11.72-4.17,17.35-6.97,14.16-7.06,28.31-14.04,41.89-22.25,10.4-6.29,19.36-14.27,28.75-21.76,2.14-1.71,3.79-4.35,7.09-4.02-5.61,7.75-10.73,15.88-17.39,22.84-.75.79-1.03,2.03-1.53,3.06-.31.35-.63.69-.94,1.04-.33.34-.65.67-.98,1.01-.67.66-1.35,1.32-2.02,1.98-.43.56-.87,1.13-1.3,1.69-1.28.31-2.32.91-2.74,2.26-4.24,1.41-6.54,5.33-9.68,8.01-19.3,16.52-40.25,30.52-62.42,42.82-4.5,2.5-9.09.8-13.63,1.26,0,0,.04.03.04.03-.76-1.8-2.34-1.93-3.97-1.97Z"/>
  <path class="cls-8" d="M185.01,513.08c-6.3,1.6-10.73-2.54-15.48-5.3-10.73-6.24-22.63-8.23-34.53-10.75-11.75-2.48-23.84-.44-35.43-3.62-.93-.26-2.02-.12-2.74-1.24-.24-2.36,1.83-3.54,3.03-5.19,1.09,1.67,2.32,2.46,3.87.51,1.45-1.82,3.61-2.13,5.6-2.92,6.07-2.42,12.57-2.96,18.82-4.56,14.35-3.66,28.82-4.71,43.73-4.16,17.82.65,34.64,4.62,51.27,10.33-1.42.98-2.84,1.96-4.27,2.94-1.63.26-3.53.06-4.85.85-9.48,5.66-18.7,11.72-27.12,18.91-1.39,1.19-2.21,2.4-1.95,4.24l.03-.04Z"/>
  <path class="cls-1" d="M195.04,132.58c.33,3.81,2.79,6.9,3.1,10.88.68,8.6-2.68,16.08-6.25,23.21-4.87,9.72-11.21,18.37-19.65,25.84-10.26,9.09-21.69,8.19-32.27,3.49-12.05-5.36-20.08-14.17-24.21-26.69-1.23-3.72-.97-7.18.45-10.66,3.24-7.97,7.23-15.51,12.82-22.12,1.72-2.03,3.15-4.22,4-6.76,1.44-1.24,1.66-3.6,3.83-4.17,1.25-.11,2.1-.67,2.27-2l-.04.03c.87-.19,1.71-.42,1.68-1.57l-.13.29c.43-.38.86-.77,1.3-1.15,0,0-.25.03-.25.03,3.07.23,5.1-.94,5.57-4.17.01-.25.14-.35.38-.31,2.8,1.44,4.27-.05,5.34-2.42l-.14.14,1.3.02c.53-.32,1.07-.65,1.6-.97,8.45-.12,16.89-.24,24.68,3.91.47.25,1.26-.13,1.91-.22v-.12c.2,1.25.93,1.57,2.07,1.21,0,0-.03-.05-.03-.05-.08,3.23,1.94,4.63,4.71,5.36l-.02-.03c.34.34.69.69,1.03,1.03,0,0-.03-.04-.03-.04-.06.88.2,1.6,1.02,2.04l-.02-.03c.61,2.49,1.99,4.48,4.02,6.02l-.02-.03ZM165.53,122.71c-11.65.42-18.13,8.69-24.52,16.69-4.79,6-6.87,13.56-9.37,20.68-4.15,11.78-.87,18.84,10.34,24.41,3.29,1.64,6.79,2.51,10.36,3.39,4.98,1.24,9.31.4,13.15-2.62,11.98-9.41,18.8-21.8,21.94-36.68,2.66-12.57-10.85-26.21-21.89-25.87Z"/>
  <path class="cls-11" d="M108.25,251.48c-.22,1.13-.43,2.26-.7,3.64-2.46-.87-3.79-2.39-5.02-4.49-10.29-17.56-14.76-36.68-12.95-56.68,1.85-20.55,9.02-39.42,23.2-55.08,2.76-3.05,4.75-6.8,8.31-9.13,2.38,2.05,5.52.38,8.07,1.63-3.09,6.46-8.26,11.56-11.37,18.08-4.32,9.06-7.55,18.24-6.65,28.45.4,4.56,2.02,8.77,4.91,12.22,3.51,4.18,3.89,8.55,2.07,13.4-3.45,8.34-5.18,17.15-7.06,25.92-3.11,2.12-1.58,5.33-1.88,8.1-.31,4.65-.62,9.3-.93,13.95Z"/>
  <path class="cls-1" d="M286.98,101.2c.78,6.78-2.16,12.26-9.32,16.39-9.28,5.34-17.57,12.42-27.76,16.16-5.57,2.04-11.12,4.07-17.32,4.07-11.74,0-18.93-6.25-24.16-15.94-5.56-10.3-5.82-20.92-4.08-32.31.84-5.47,3.29-8.06,7.32-10.36,11.37-6.49,22.98-12.66,35.97-15.09,12.81-2.39,23.19,1.31,32.32,14.6,5.49,7.98,7.05,13.53,7.03,22.48ZM277.74,95.82c1.31-7.81-4.42-12.35-9.17-17.42-5.38-5.75-12.14-6.76-19.12-4.52-6.9,2.21-13.66,5.07-20.13,8.35-15.04,7.61-19.11,15.99-15.21,29.86,3.54,12.58,12.37,19.17,24.63,17.38,10.24-1.5,20.05-4.69,28.26-11.48,6.84-5.66,11.52-12.39,10.75-22.15Z"/>
  <path class="cls-11" d="M223.16,486.18c-16.63-5.71-33.45-9.68-51.27-10.33-14.91-.54-29.39.5-43.73,4.16-6.26,1.6-12.76,2.14-18.82,4.56-1.99.79-4.16,1.1-5.6,2.92-1.55,1.95-2.78,1.16-3.87-.51,2.45-5,7.32-7.16,11.81-9.52,13.83-7.28,28.46-12.67,43.77-15.61,14.86-2.86,29.95-4.34,45.05-1.22,3.71.77,7.46,1.15,11.19,2.15,6.54,1.77,12.46,4.21,17.37,8.91.5.83,1.01,1.66,1.51,2.49,2.52,3.25,3.58,6.36-.77,9.03-.03.02.09.29.14.44-2.18,1.04-4,3.03-6.75,2.52Z"/>
  <path class="cls-9" d="M423.71,336.47c1.22,3.84,5.22,5.84,6.24,9.98,1.53,6.2-.31,11.92-1.97,17.58-3.31,11.3-8.28,21.87-14.88,31.71-3.79,5.64-9.82,7.84-15.19,12.19-1.7-4.66.2-7.18,2.76-9.79,6.93-7.05,8.57-15.77,7.51-25.25-.19-1.72-.72-3.5-1.94-4.5-3.9-3.21-3.52-6.83-2.1-11.08,2.11-6.31-.23-12.1-3.03-17.67-1.41-2.8-2.86-5.63-4.65-8.19-2.57-3.66-1.51-5.76,2.4-7.06,6.53.19,11.29,4.71,17.01,6.9.8.99,1.7,1.82,3.03,2l.05.03c.7,1.06,1.61,1.84,2.89,2.11l-.03-.04c.48.74,1.06,1.29,2.04,1.03l-.13.05ZM426.39,358.58c2.51-6.34,1.71-11.99-2.23-15.84,1.57,5.28-.26,10.46,2.23,15.84Z"/>
  <path class="cls-9" d="M410.96,277.35c4.85,2.4,7.69,6.81,9.88,11.31,6.09,12.48,11.23,25.32,10.19,39.68-.07.97-.19,1.93-.27,2.81-1.66.65-2.55-1.06-3.92-.83-.2-.07-.41-.08-.61,0-.46-.34-.91-.67-1.37-1.01l.05.03c-.67-.47-1.35-.95-2.02-1.42-8.16-4.84-17.04-8.59-23.8-15.57-.4-.34-.79-.68-1.19-1.02l.07-.02c-3.14-8.69-3.67-17.88-5.14-26.9-.05-.35-.1-.71-.16-1.06-.72-1.71-.34-3.78-1.73-5.27-.03-.53-.06-1.05-.1-1.58.16-1.17,0-2.24-.87-3.11-.06-.66-.11-1.32-.17-1.97-.29-.44-.59-.88-.88-1.32.09-.2.09-.39,0-.59,0-.36-.02-.73-.03-1.09-.08-.66-.16-1.33-.23-1.99.26-1.2.06-3.14,2.08-2.42,3.71,1.31,8.04,1.67,10.2,5.77-.15,1.65.66,2.87,1.78,3.94,5.81,5.55,10.61,11.85,14.45,18.92.55,1.02,1.2,2.46,3.53,1.83-1.16-2.3-2.28-4.45-3.32-6.64-1.77-3.72-5.62-6.16-6.42-10.48Z"/>
  <path class="cls-11" d="M133.2,269.43c-.04-.63.18-1.5-.15-1.86-6.51-7.03-3.73-14.98-2.77-22.99,1.07-8.86,2.37-17.68,3.68-26.51.43-2.91,1.48-5.47,4.4-7.13,1.73-.99,3.06-1.76,4.94-.7,1.87,1.06,2.12,2.63,2.08,4.62-.15,6.61-.6,13.18.9,19.81,2.65,11.73,8.68,21.57,15.87,30.86,2.3,2.97,4.18,6.15,3.88,9.85-.58,6.93-7.44,10.23-14.27,6.93-5.53-2.67-10.34-6.45-14.61-10.85-1.18-1.21-2.03-2.64-4.03-2.13,0,0,.08.08.08.08Z"/>
  <path class="cls-1" d="M165.06,296.27c6.09.73,7.8,4.18,5.46,11.04-2.05,6.01-6.77,10.01-11.76,12.97-9.43,5.58-19.73,7.63-30.96,6.42-11.71-1.26-22.22-4.71-31.54-11.88-3.6-2.77-3.88-4.75-.2-7.78,5.14-4.23,11.19-4.2,17.43-3.08,6.89,1.23,13.04,4.89,20.04,5.77,10.32,1.3,19.94,1.15,26.23-9.22,1.11-1.83,3.52-2.87,5.33-4.27,0,0-.02.03-.02.03ZM137.7,320.46c1.96-1.69,5.17-1.11,4.93-4.31-.11-1.52-1.79-1.86-3.11-1.53-2.85.71-2.65,2.79-1.82,5.84ZM164.88,304.98c-1.75-.84-3.4-.93-4.39,1.06-.9,1.8-.55,3.41,1.9,4.03.61-1.78,2.48-2.7,2.49-5.08ZM119.8,314.07c-4.43-2.18-5.12-1.74-4.81,3.77,1.12-2.47,3.39-1.85,4.81-3.77Z"/>
  <path class="cls-15" d="M226.08,332.37c0-2.11,0-4.22,0-6.32,1.87.4,2.58-.7,2.96-2.27.5-2.1,2.07-3.11,3.95-3.78.01,1.67.09,3.33.03,4.99-.09,2.38,1.01,3.65,3.31,4.23,6.07,1.54,6.44,2.09,4.9,7.98-4.3,16.41-5.19,33.05-3.04,49.81.75,5.88,1.86,11.99,4.26,17.34,5.65,12.6,14.42,22.86,25.67,31.06,6.03,4.4,12.84,7.4,18.91,11.67-1.57,0-3.13,0-4.7.01-6.14-1.93-12.33-3.65-18.06-6.8-7.04-3.87-12.81-9.38-19.2-14.09,0,0,0,.01,0,.01-.22-1.14-.91-1.81-2.04-2.03,0,0,.06.06.06.06-.01-.7-.31-1.11-1.06-1.07,0,0,.07.08.07.08-5.08-7.89-9.72-15.96-11.59-25.35-2.57-12.91-3.29-25.84-.79-38.83,2.53-7.23,1.5-14.56.48-21.87-.02-.12-.58-.17-.89-.25,0,0,.05-.29.05-.29.28-.55.06-.9-.45-1.14-.3-.09-.61-.15-.92-.18,0,0,.1.04.1.04-.45-1.19.6-3.38-2.06-3.1l.06.08Z"/>
  <path class="cls-2" d="M399.1,312.35c6.77,6.97,15.64,10.73,23.8,15.57.29,1.02,1.05,1.37,2.02,1.42,0,0-.05-.03-.05-.03.46.34.91.67,1.37,1.01.2-.07.41-.07.61,0-1.07,2.04,2.67,6.53-3.14,6.15,0,0,.13-.05.13-.05-.46-.78-1.19-1.02-2.04-1.03,0,0,.03.04.03.04-.09-1.9-1.43-2.09-2.89-2.11,0,0-.05-.03-.05-.03-.43-1.54-.56-3.54-3.03-2-5.71-2.19-10.48-6.71-17.01-6.9-.56-2.69-1.96-2.02-3.56-.94-1.32.9-1.78,2.76-3.93,3.28-.44-5.07-3.63-9.71-.84-15.01.77-1.46,1.05-3.67-1.58-4.35,0-.67-.02-1.33-.03-2,1.36-1.39,1.25-2.75-.07-4.1-1.81-10.01-2.11-20.37-7.29-29.59-4.66-8.31-11.46-10.76-20.72-7.11,2.23,2.47,6.64,1.31,8.05,4.93-12.99-6.4-25.58-4.04-37.99,1.79-.35-.42-.66-.38-.93.08-.29.07-.58.12-.88.12-1.97-.86-4.08-1.51-5.88-2.64-3.35-2.09-7.29-3.83-10.78-3.08-6.62,1.42-10.7-3.14-16.31-4.38,1.63-3.41,4.19-2.75,6.38-3.03.96.17,1.94.27,2.87.52,11.78,3.14,23.56,4.91,35.68,1.45,6.99-1.99,14.16-3.41,21.53-3.01,5.51-.75,10.49,1.85,15.78,2.61,3.35.48,5.63,3.03,5.16,6.97,1.92-.19,3.53-.35,5.14-.51.08.66.15,1.33.23,1.99-.11.11-.34.25-.32.33.07.27.22.51.35.77.1.2.1.39,0,.59.29.44.59.88.88,1.32.06.66.11,1.32.17,1.98q-3.5,1.38-2.05,5.38c1.19-.49,1.3-2.37,2.92-2.27.03.53.06,1.05.1,1.58.3,1.85-1.2,4.29,1.73,5.27.05.35.1.71.16,1.06-.26.41-.71.81-.74,1.24-.61,8.62,1.77,16.82,3.68,25.08.2.87,1.41.57,2.21.57,0,0-.07.02-.07.02.4.34.79.68,1.19,1.02Z"/>
  <path class="cls-1" d="M108.25,251.48c.31-4.65.62-9.3.93-13.95,3.63-2,1.31-5.39,1.88-8.1,1.88-8.77,3.61-17.58,7.06-25.92,2.42-1.7,2.64-4.55,3.45-7,.83-2.54,2.27-3.34,4.78-3.18,8.27.54,12.71,7.67,8.98,14.91-5.31,10.32-9.67,21.08-11.69,32.44-1.69,9.55-2.2,19.39-.69,29.15.25,1.64.67,3.26-.36,5.16-8.07-4.43-11.73-11.64-13.46-20.19-.23-1.12-.59-2.21-.89-3.31Z"/>
  <path class="cls-23" d="M168.08,208.51c.05-2.32,1.05-4.28,2.92-5.5,8.52-5.59,14.23-13.66,19.72-21.95.37-.55.73-1.1,1.78-2.69,2,8.46,3.62,15.85,10.01,20.79,6.43,4.97,13.26,7.38,21.23,4.04l1.11,1.11c-1.29,3.6-5.88,4.3-7.06,8.01,0,0,.11-.1.11-.1-1.7-.66-2.61.85-3.73,1.52-4.71,2.83-9.64,5.06-15,6.35-12.78,3.07-26.14-1.9-31.08-11.58Z"/>
  <path class="cls-9" d="M362.59,257.34c-7.37-.4-14.54,1.02-21.53,3.01-12.12,3.46-23.89,1.68-35.68-1.45-.94-.25-1.92-.35-2.87-.52-1.38-1.4-2.5-2.92-2.57-4.99,0,0-.03.05-.03.05.81-.05.97-.63,1.05-1.28.68-1.24,1.36-2.48,2.03-3.72,22.59-10.52,44.74-8.45,66.55,2.41,2.77,1.38,2.71,1.5,4,4.71-3.45,1.85-7.61-.36-10.96,1.78ZM320.89,245.54c5.55,1.56,10.89-.4,16.31-.94-5.53-1.37-10.98-1.29-16.31.94Z"/>
  <path class="cls-23" d="M241.89,148.55c.43-2.43,1.56-4.41,3.95-5.31,4.11-1.54,7.8-4.19,12.66-4.91.78,3.55.31,7.02,1.38,10.31,2.34,7.2,6.98,11.84,14.21,13.88,6.04,1.7,10.72-1.93,10.87-8.3.09-3.71-.55-7.23-2.53-10.4-10.54,1.02-14.37-2.67-11.82-11.86,8.42.52,13.59,5.45,17.59,12.38,4.47,7.72,2.19,14.17-3.23,20.21-.64.52-1.29,1.03-1.92,1.56-8.22,6.95-17.34,8.45-27.37,4.52-10.05-3.95-14.92-11.13-13.8-22.06Z"/>
  <path class="cls-23" d="M129.16,131.37c-2.55-1.25-5.68.42-8.07-1.63,4.36-8.64,12.94-12.57,20.24-17.82,10.22-7.34,21.36-12.62,34.27-13.09,4.97,1.67,9.95,3.34,14.93,5.01,4.15,3.51,3.64,8.25,3.43,12.92-.66.48-1.32.95-1.98,1.43-.66.47-1.32.95-1.97,1.42,0,0,.07-.04.07-.04-2.16.63-3.94-.34-5.72-1.33,0,0,.03.05.03.05-.69-.4-1.38-.8-2.06-1.21,0,0,0,.12,0,.12-8.32-5.17-17.07-7.2-26.59-3.69-.53.32-1.07.65-1.6.97-.41-1.01-.85-.79-1.3-.02,0,0,.14-.14.14-.14-2,.33-3.96.74-5.34,2.42-.24-.04-.37.06-.38.31-2.09,1.08-4.03,2.36-5.57,4.17,0,0,.25-.03.25-.03-.43.38-.86.77-1.29,1.15,0,0,.13-.29.13-.28-.56.52-1.12,1.04-1.68,1.57,0,0,.04-.03.04-.03-.76.67-1.51,1.34-2.27,2-2.17.57-2.38,2.93-3.83,4.17-1.29.53-2.59,1.07-3.88,1.6Z"/>
  <path class="cls-15" d="M137.24,275.02c5.17,4.16,10.46,8.02,17.09,9.73,4.01,1.03,7.88.99,10.65-1.99,3.07-3.3,3.85-7.5,2.09-12.02-1.89-4.86-4.84-9.04-8.05-13.03-9.76-12.13-13.41-25.96-11.72-41.32,4.57.75,7.18,2.65,7.28,8.06.21,11.14,3.74,21.36,9.65,30.93,3.45,5.58,7.1,11.19,9.13,17.53,2.62,8.21-1.59,15.35-9.78,17.66-6.23,1.76-11.36-1.06-16.71-3.14-5.64-2.19-9.46-5.92-9.63-12.42Z"/>
  <path class="cls-13" d="M137.24,275.02c.17,6.5,3.99,10.23,9.63,12.42,5.35,2.08,10.48,4.9,16.71,3.14,8.19-2.31,12.4-9.45,9.78-17.66-2.03-6.35-5.68-11.96-9.13-17.53-5.91-9.57-9.44-19.79-9.65-30.93-.1-5.41-2.71-7.31-7.28-8.06.83-5.95,5.12-4.79,9.71-4.48.29,10.76-1.23,21.89,5.09,31.59,0,0-.03-.09-.03-.09,1.06,4.95,3.93,9.02,6.53,13.19,5.91,9.48,10.22,19.3,7.45,30.85,0,0,.08-.08.08-.08-3.34,3.4-6.31,7.26-11.06,8.9,0,0,.02-.03.02-.03-21.31.69-37.54-12.43-36.68-29.72,2.43-.39,2.81,2.62,4.8,2.91,0,0-.08-.08-.08-.08,1.37,1.89,2.74,3.78,4.11,5.66Z"/>
  <path class="cls-22" d="M232.98,320c-1.88.68-3.45,1.68-3.95,3.78-.37,1.57-1.09,2.67-2.96,2.27.7-7.13,5.77-11.93,14.45-13.39,4.04-.68,8.13-1,12.2-1.49,9.01-2.32,14.79-9.38,21.35-15.1,2.21-1.93,4.63-3.47,6.87-5.28,3.69-1.64,7.5-2.67,11.58-2.33l-.13-.05c3.08,1.64,5.56,3.9,7.32,6.93,1.54,2.64,2.06,5.8,4.2,8.13,0,0-.05-.06-.05-.06,3.29,4.68,1.69,9.12-.67,13.52.22-1.34-1.2-2.16-.95-3.67.73-4.49-5.02-13.26-9.79-14.79,2.53-2.71.51-3.9-1.71-4.67-2.39-.82-5.08-1.14-7.17.55-3.82,3.08-7.85,6.09-10.97,9.82-5,5.99-11.02,9.92-18.64,11.04-2.3.34-3.86,3.06-6.89,1.36-3.93-2.22-10.65-.24-14.1,3.42Z"/>
  <path class="cls-9" d="M368.9,269.52c-1.41-3.62-5.82-2.46-8.05-4.93,9.27-3.65,16.06-1.2,20.72,7.11,5.17,9.22,5.47,19.58,7.29,29.59.02,1.37.05,2.73.07,4.1,0,.67.02,1.33.03,2-.35,2.27.4,4.66-.71,6.85-6.04-.81-9.52-5.48-8.12-11.04,1.22-4.84,2.34-9.68,1.71-14.73.14-1.14.22-2.26-.87-3.05-.05-.68-.11-1.36-.16-2.04-.15-1.32-.3-2.64-1.96-2.94,0,0,.03.03.03.03.16-.93.25-1.82-1.03-2.02,0,0,0,.01,0,.01.31-2.97-.98-4.67-3.99-4.98,0,0,0,0,0,0-.18-3.19-2.51-3.7-4.99-4.01l.04.05Z"/>
  <path class="cls-23" d="M226.84,200.33c3.54-10.11.96-19.06-5.03-27.49-4.89,4.79-10.08,4.27-13.17-1.67-1.73-3.34-2.27-7.29-4.5-10.47.53-.16,1.14-.23,1.03-1.02l-.05.02c5.35-1.08,10.03,1.21,14.82,2.95,0,0,0,0,0,0,.97,1.44,2.17,2.58,3.92,2.98,0,0,.09.08.09.08,1.08,1.83,2.1,3.71,3.95,4.92,0,0,.01.02.01.02,2.69,5.52,4.91,11.07,4.14,17.49-.51,4.28-2.67,8.02-3.26,12.22,0,0,.04-.09.04-.09-.78-.64-.99.41-1.51.51-.16-.15-.32-.3-.48-.45Z"/>
  <path class="cls-22" d="M353.82,338.9c.17-.31.2-.64.09-.97.68-.31,1.32-.64,1.12-1.58,0,0-.09.11-.09.11.87.13,1.37-.1,1.09-1.1,0,0-.08.16-.08.16,1.46.2,2.57-1.31,4.43-.21,9.21,5.45,16.39,25.92,12.35,35.91-.96,1.06-1.92,2.12-2.87,3.19-2.24-.54-1.65-2.55-2.14-4.04-1.68-5.08-.78-10.41-3.69-15.71-3.06-5.56-5.82-11.11-10.2-15.76Z"/>
  <path class="cls-1" d="M191.98,118.19c.66-.48,1.32-.96,1.98-1.43,2.04,1.19,5.06-1.81,6.35.84,2.42,4.97,6.98,8.97,7.38,14.82.2,2.92-5.86,4.78-8.85,3.03-1.4-.82-1.82-2.89-3.81-2.87,0,0,.02.03.02.03-.07-2.86-1.24-4.97-4.02-6.02,0,0,.02.03.02.03.09-.89-.2-1.6-1.02-2.04,0,0,.03.04.03.04-.34-.34-.69-.69-1.03-1.03,0,0,.02.03.02.03.34-1.34.67-2.69,1.01-4.03,0,0-.07.04-.07.04.92-.11,1.68-.45,1.97-1.42Z"/>
  <path class="cls-2" d="M359.94,505.3c1.68-3.41,5.32-4.79,7.74-7.47,6.04-6.67,10.99-14.06,14.79-22.16,2.52-5.37,1.26-10.97-.25-16.46-.82-2.98-2.37-5.79-2.31-8.99,1.33-3.22,3.93-3.54,6.9-3.02-1.61.28-3.22.57-4.97.87-.98,4.77,1.06,8.91,2.45,12.99,2.49,7.32,1.66,13.83-2.67,20.21-5.17,7.62-8.87,16.36-16.91,21.72-1.47.98-2.75,2.45-4.77,2.31Z"/>
  <path class="cls-11" d="M190.54,103.84c-4.98-1.67-9.95-3.34-14.93-5.01,2.39-2.86,14.2-6.26,17.58-4.99.54.2,1.43.88,1.36,1.11-.9,3.15.39,7.33-4.01,8.89Z"/>
  <path class="cls-2" d="M168.08,208.51c4.94,9.68,18.31,14.65,31.08,11.58,5.35-1.29,10.29-3.52,15-6.35,1.12-.67,2.02-2.18,3.73-1.52-7.74,7.94-17.66,10.43-28.21,10.52-9.94.09-17.86-4.11-22.79-13.11.39-.37.79-.75,1.18-1.12Z"/>
  <path class="cls-2" d="M241.89,148.55c-1.12,10.93,3.75,18.11,13.8,22.06,10.02,3.94,19.14,2.44,27.37-4.52.63-.53,1.28-1.04,1.92-1.56.28.31.55.62.83.92-7.39,8.7-19.23,11.36-30.21,6.8-12.6-5.24-16.24-11.11-15.31-24.74.53.34,1.07.69,1.6,1.03Z"/>
  <path class="cls-13" d="M222.93,149.52c-.13,1.26-.92,1.77-2.1,1.83-6.75-.06-11.13,4.34-15.71,8.35,0,0,.05-.02.05-.02-.37-.03-.73-.05-1.1-.08-.92.19-1.84.38-2.9.59-.95-2.94-1.17-5.8-.23-8.71.52,1.51-.4,3.36,1.35,4.89,4.53-1.22,8.79-2.8,10.09-8.28-1.56-.95-2.96-1.79-4.35-2.64.03-.66,1.34-1.45-.21-1.94h-.25c5.52.99,11.2,1.55,15.36,6.01Z"/>
  <path class="cls-15" d="M208.03,145.45c1.39.84,2.79,1.69,4.35,2.64-1.3,5.48-5.57,7.06-10.09,8.28-1.75-1.52-.83-3.38-1.35-4.89-.94-2.39,2.69-2.89,2.13-5.13l-.11.13c1.97,1.03,3.24-1.38,5.07-1.03Z"/>
  <path class="cls-16" d="M410.96,277.35c.8,4.31,4.65,6.75,6.42,10.48,1.04,2.19,2.17,4.33,3.32,6.64-2.33.63-2.98-.81-3.53-1.83-3.83-7.07-8.63-13.38-14.45-18.92-1.12-1.07-1.92-2.29-1.78-3.94.19-.25.41-.26.64-.05.73.33,1.47.66,2.21.99.33.2.66.41.99.61.35.83,1.01,1.23,1.88,1.31,0,0,.02.02.02.02.74,2.19,2.14,3.78,4.27,4.71h0Z"/>
  <path class="cls-23" d="M216.07,187.97c-1.56.95-3,1.06-4.08.42-2.98-1.75-5.02-4.1-4.38-8.01.28-1.72,1.41-2.56,2.62-2.2,3.18.96,5.13,3.35,5.81,6.62.22,1.08.04,2.24.04,3.18Z"/>
  <path class="cls-23" d="M203.08,146.35c-3.97-.5-2.93-3.68-2.81-5.93.08-1.62,1.9-3,3.56-2.54,2.6.72,4.7,2.3,3.75,5.64,0,0,.25,0,.25-.01-1.62.99-3.24,1.98-4.86,2.97l.11-.13Z"/>
  <path class="cls-23" d="M272.42,146.58c3.52-.05,5.61,1.2,5.57,4.82-.02,1.42-.86,2.31-2.19,1.92-3.11-.92-4.62-2.94-3.38-6.74Z"/>
  <path class="cls-2" d="M178.94,371.31q.24,6.77,7.14,7.03l-.05-.06c-1.72,3.21-4.33,2.07-6.86,1.42-2.76-.72-2.07-2.95-2.11-4.83-.03-1.65-.04-3.31.92-4.77.32.4.64.81.96,1.21Z"/>
  <path class="cls-16" d="M246.02,308.36c-1.17,2.54-3.09,3.4-5.76,2.57-.96-1.37-.93-2.73-.06-4,1.85-1.51,3.04,2.07,4.84.47,0,0-.06-.04-.06-.04-.44,1.15-.06,1.49,1.07,1.06l-.03-.06Z"/>
  <path class="cls-12" d="M229.3,336.96c.31.08.87.13.89.25,1.02,7.32,2.05,14.64-.48,21.87.13-7.38,1.17-14.78-.41-22.12Z"/>
  <path class="cls-9" d="M410.96,277.36c-2.14-.92-3.54-2.51-4.27-4.71,2.19.87,3.96,2.13,4.27,4.71Z"/>
  <path class="cls-2" d="M238.02,146.4c-2.01.02-4.01.04-6.02.06,1.99-1.3,4-1.25,6.02-.06Z"/>
  <path class="cls-23" d="M223.73,203.2c1.04-.96,2.08-1.91,3.12-2.87.16.15.32.3.48.45.09.91-1.26,1.51-.55,2.55,0,0,.06-.08.06-.08-1.19-.63-1.29.78-2,1.06l-1.11-1.11Z"/>
  <path class="cls-2" d="M378.84,280.44c1.67.3,1.82,1.62,1.96,2.94-.3.01-.6.02-.89.02-.9-.79-1.24-1.78-1.07-2.96Z"/>
  <path class="cls-2" d="M380.97,285.42c1.1.78,1.01,1.91.87,3.05-.89-.84-.99-1.91-.87-3.05Z"/>
  <path class="cls-9" d="M403.79,270.71c-.74-.33-1.47-.66-2.21-.99,1.07-.41,1.87-.22,2.21.99Z"/>
  <path class="cls-9" d="M406.66,272.64c-.87-.08-1.52-.48-1.88-1.31.94-.01,1.64.32,1.88,1.31Z"/>
  <path class="cls-8" d="M409.99,584.01c.69.29,1.37.57,2.06.87-1.02.5-1.72.25-2.06-.87Z"/>
  <path class="cls-8" d="M409.07,583.02c.29.31.57.62.86.93-.29-.31-.57-.62-.86-.93Z"/>
  <path class="cls-6" d="M223.79,464.47l.37-.15s-.28.07-.29.08c0,0-.08.07-.08.07Z"/>
  <path class="cls-2" d="M379.65,448.83c-.19-.51-.38-1.03-.57-1.54.19.51.38,1.03.57,1.54Z"/>
  <path class="cls-2" d="M239.9,146.87c-.3.03-.55-.07-.75-.32.29.02.53.12.75.32Z"/>
  <path class="cls-12" d="M228.9,335.53c.51.24.73.59.45,1.14-.15-.38-.3-.76-.45-1.14Z"/>
  <path class="cls-2" d="M204.07,159.6c.37.03.73.05,1.1.08.11.8-.5.87-1.03,1.02-.02-.37-.05-.74-.07-1.11Z"/>
  <path class="cls-8" d="M254.01,637c7.12,0,14.25.01,21.36.02,4.1.05,8.21.1,12.31.15,9.37.1,9.5.22,9.31,9.41,0,0,.04-.07.04-.07-2.12,1.37-4.14,2.81-3.83,5.79,0,0,.11.02.11.02-.75.26-1.49.53-2.24.79-4.77-8.73-14.23-5.59-20.07-1.04-7.19,5.59-14.4,11.17-21.48,16.91-12.81,10.4-27.03,17.86-43.16,21.74-16.44,3.95-33.1,4.73-49.9,4.31-2.54-.06-3.29-1.58-4.16-3.32-2.92,2.47-2.97,2.69-6.26,1.95-1.77-.4-3.26.13-4.87.31-1.63-1.19-4.2-1.25-4.35-4.18-.17-3.2,2.66-3.35,4.3-4.01,7.95-3.21,15.68-6.81,23.32-10.69,8.92-4.52,16.47-10.94,24.24-17,6.87-5.35,13.02-11.62,19.48-17.5,7.99-7.28,17.86-6.77,27.17-5.1,6.29,1.13,12.43,1.38,18.68,1.5Z"/>
  <path class="cls-11" d="M137.11,618.02c-3.71.22-5.58,3.44-8.32,5.21-14.88,9.64-31.22,13.33-48.73,12.37-6.97-.38-13.83-1.53-20.3-4.35-2.54-1.11-4.95-2.42-6.47-5.37,8.84-2.72,17.81-3.92,25.71-8.59-13.06-.72-26.06-1.22-38.88-3.25-12.7-2.01-24.86-5.83-36.11-13.14,4.3-3.73,8.19-6.66,12.83-8.56,4.38-1.79,8.66-3.83,13.12-5.83.45-2.15-.46-3.34-2.73-3.57-1.05-.1-2.04-.42-2.15-1.64-.14-1.48,1.04-1.75,2.12-2.31,10.78-5.66,22.44-7.77,34.4-8.77,1.49-.13,3.02-.02,4.48-.28,1.41-.25,3.1-.39,3.05-2.54-.04-1.76-1.26-2.05-2.61-2.44-4.29-1.24-8.52-2.69-12.84-3.83-1.71-.45-3.08-1.13-4.08-2.55,14.62-22.13,63.3-20.39,73.74-2.74-2.83-.24-5.54-.47-8.26-.71l.06.04c-2.45-3.11-6.15-1.6-9.21-2.46-11.31-3.18-21.96-.59-32.8,3.44,2.13,7.98,11.76,9.12,14.44,17.13-7.05-.78-12.89,1.38-18.96,2.03-5.22.56-10.83.5-15.47,3.82l.06-.07c-2.11-.09-4.34-.63-6.34,1.92,2.85,3.2,7.74,2.27,10.78,5.39-3.38,4.76-9.52,3.86-13.81,6.62-1.09.71-2.5.97-3.5,1.77-4.62,3.69-4.29,5.71,1.04,8.4,10.07,5.1,20.95,6.92,32.01,7.96,7.1.67,14.2,1.25,21.68,1.9-2.63,5.45-9.45,5.54-11.76,11.44,19.68,6.7,36.62.08,52.8-9.49,1.66.85-.27,2.35.98,3.1,0,0,.03-.04.03-.04Z"/>
  <path class="cls-21" d="M115.07,555.13c2.37,2.22,6.41,1.22,8.83,4.66-6.8.65-13.29.49-19.41,2.55-1.68.56-4.25.03-4.66,2.87-.35,2.42,1.34,3.58,2.84,4.88.97.84,2.29,1.41,2.41,3.36-5.36,2.2-11.18,3.62-16,7.16-1.32.97-3.11,1.54-3.04,3.58.11,2.97-1.61,5-3.47,6.89-2.58,2.62-1.75,4.35,1.28,5.56,7.34,2.93,15.08,3.87,22.88,4.42,3.31.23,6.65.26,9.96.54,1.57.13,3.62-.2,4.23,1.84.6,2.04-.9,3.48-2.18,4.74-2.18,2.13-5.28,3.51-5.76,7.79,8.73.98,15.66-4.91,23.87-5.74-9.67,12.51-39.75,18.35-50.31,12.48,4.9-3.77,10.35-6.7,13.46-12.72-21.37,1.22-41.8-.22-60.87-9.95,2.01-3.72,10.56-8.32,22.85-12.44-1.31-5.2-6.56-4.1-9.83-6.23-.88-1.25,1.36-1.25,1.06-2.3,0,0-.06.07-.06.07,12.36-.95,24.43-3.96,37.07-4.43-.8-9.43-10.15-10.82-14.49-17.08,8.34-3.72,16.47-5.25,25.08-4.16,4.77.61,9.56,1.14,14.34,1.71l-.06-.04Z"/>
  <path class="cls-11" d="M141.17,693.97c1.61-.18,3.09-.7,4.87-.31,3.29.74,3.34.51,6.26-1.95.87,1.74,1.62,3.25,4.16,3.32,16.81.42,33.46-.36,49.9-4.31,16.13-3.88,30.35-11.34,43.16-21.74,7.08-5.74,14.28-11.32,21.48-16.91,5.84-4.54,15.31-7.68,20.07,1.04-11.07,17.75-26.39,30.27-45.85,37.97-16.48,6.52-33.52,10.34-51.16,10.91-15.61.5-31.11-1.08-46.34-4.87-2.44-.61-4.58-1.66-6.55-3.14Z"/>
  <path class="cls-11" d="M195.09,559.17c10.15-1.32,20.29-2.73,30.45-3.95,12.76-1.54,25.38-1.41,37.41,4,.16,1.82,2.12,1.76,3.01,2.87,1.67,2.09,2.32,3.89-.69,5.3-14.23.23-28.39-1.33-42.7-.55-15.69.86-31.14,3.43-46.75,4.74-16.42,1.38-32.75,4.09-48.98,7.2-3.22.62-6.15,2.46-9.48,2.21-6.72-.5-13.09,2.08-19.73,2.13-1.31,0-2.23.56-2.49,1.94-2.11-.37-4.5.85-6.31-1.16,1.85-4.08,5.96-5.2,9.53-6.42,13.35-4.59,26.88-8.64,40.92-10.7,1.42-.21,2.75-1.04,4.12-1.59.34-.04.67-.08,1.01-.13,4.94.22,9.47-2.4,14.42-2.06,1.38,0,2.77-.02,4.15-.03,9.82.97,19.28-2.88,29.1-2.24.97.06,2.01-1.01,3.01-1.56Z"/>
  <path class="cls-8" d="M95.14,585.06c.26-1.38,1.18-1.93,2.49-1.94,6.65-.05,13.01-2.63,19.73-2.13,3.32.25,6.26-1.59,9.48-2.21,16.24-3.11,32.56-5.82,48.98-7.2,15.61-1.31,31.07-3.88,46.75-4.74,14.31-.79,28.47.78,42.7.55-.05.54-.1,1.08-.16,1.63-4.16,2.47-8.33,4.93-13.14,5.97-.33.06-.67.12-1,.19,0,0,.15-.06.15-.06-9.45-.06-18.65,2.39-28.08,2.83-4.24.19-8.52,1.13-12.84,1.15-16.1.04-32.03,2.24-48.04,3.51-9.07.72-18.06,2.18-27.16,2.5-6.63.24-13.02,2.75-19.74,2.08-5.87.08-11.76-.02-17.61.34-2.27.14-2.49-.8-2.52-2.45Z"/>
  <path class="cls-4" d="M162.27,596.16c2.85,9.63,6.24,19.04,10.82,28,.35.3.71.59,1.06.89,0,0-.06-.1-.05-.1,0,.7.27,1.13,1.06,1.05,0,0-.03-.04-.03-.04-.3,1.04,0,1.75,1.11,2.02,0,0-.06-.09-.06-.09.14,1.85.62,3.37,2.98,3.07,0,0,0-.13,0-.13-.18,2.4-1.4,3.25-3.85,3.18-5.19-.15-9.91-1.62-13.74-5.06-8.93-8.04-14.52-17.99-16.36-29.94,3.58.61,7.19,1.12,10.75,1.84,3.95.8,6.57.05,6.32-4.69Z"/>
  <path class="cls-20" d="M162.27,596.16c.25,4.74-2.37,5.49-6.32,4.69-3.56-.72-7.16-1.24-10.75-1.84-.17-.28-.43-.55-.5-.86-.78-3.78-3.63-8.22-.41-11.25,3.36-3.17,8.54-1.79,12.98-1.62,2.62.1,2.18,2.89,3.22,4.44,1.14-1.06.08-2.59.76-3.74,1.29,2.55.69,5.33.98,8,0,.73.02,1.46.03,2.19Z"/>
  <path class="cls-19" d="M95.14,585.06c.02,1.65.25,2.59,2.52,2.45,5.86-.36,11.74-.26,17.61-.34-8.39,1.54-16.79,3.62-25.19.07-1.46-.62-4.3-.94-1.25-3.34,1.8,2.01,4.2.79,6.31,1.16Z"/>
  <path class="cls-20" d="M158.83,563c-4.95-.34-9.49,2.28-14.42,2.06-1.9-12.19,5.16-24.65,16.39-28.88,1.56-.59,3.2-1.49,4.07.94-2.3,4.59-4.07,9.31-3.76,14.58,0,0,.07.22.07.22-1.37,3.57-1.82,7.34-2.35,11.09Z"/>
  <path class="cls-10" d="M161.1,551.69c-.32-5.26,1.46-9.99,3.76-14.58.35,0,.71,0,1.06,0-1.61,4.86-3.21,9.71-4.82,14.57Z"/>
  <path class="cls-5" d="M598.61,1.01c-.64.53-1.05,1.13-1.57,1.23-.75.15-1.14-.49-1.05-1.22.09-.78.68-1.12,1.38-.99.37.07.67.51,1.24.98Z"/>
  <path class="cls-17" d="M320.94,465.76c.42,1.22,1.36,1.93,2.47,2.47.99,1,1.96,2.02,3.52,2.05,0,0-.03-.02-.03-.02.75,1.54,1.51,3.08,2.13,4.35-2.18,2.31-4.2,4.26-6,6.4-4.55,5.43-6.52,11.28-3.03,18.15,2.5,4.91,6.56,8.12,11.09,10.91-5.02.76-8.6-1.81-11.79-5.17-6.06-6.4-11.87-13.17-21.59-13.88.45-3.79,1.35-7.65-1.69-10.89l.04.04c-.58-2.52-1.7-4.69-4.03-6.04l.03.03c-1.36-4.08-5.36-6.54-6.73-10.94,4.79-2.88,10.39-2.96,15.45-4.68,1.16-.35,2.32-.7,3.48-1.05,1.5-.77,3.55.5,4.78-1.28h-.11c2.59.38,5.36-.5,7.75,1.15.35,1.53.1,3.39,2.2,3.94,0,0-.03-.04-.03-.04-.79,2.19.95,3.21,2.09,4.51Z"/>
  <path class="cls-17" d="M223.16,486.18c2.76.51,4.57-1.49,6.74-2.52,2.6-1.09,4.92-3.39,8.14-1.99.92.45,1.85.91,2.78,1.36.38,1.56,2.45,2.2,2.27,4.39-8.36,2.76-14.76,7.55-16.72,16.91-.65,3.12-.02,4.27,3.02,5.39,6.82,2.52,13.79.95,20.66,1.52-1.07,2.82-3.87,2.51-5.91,2.71-9.65.97-19.13,1.38-27.08-6.14-4.64-4.39-11.17-4.67-17.18-5.77,1.49-1.22,2.92-2.52,4.48-3.66,4.65-3.39,10.24-5.33,14.55-9.27,1.42-.98,2.84-1.96,4.27-2.94Z"/>
  <path class="cls-2" d="M250.04,511.24c-6.87-.57-13.84,1-20.66-1.52-3.03-1.12-3.67-2.27-3.02-5.39,1.96-9.36,8.36-14.15,16.72-16.91.18-2.19-1.89-2.83-2.27-4.39,5.17.51,9.56,4.2,15.29,3.67-12.46,1.27-23.96,3.46-27.7,19.24,2.42-2.35,2.53-5.02,5.69-6.2-1.14,3.32-4.3,5.38-2.69,8.62,5.69,3.29,6.71-1.49,8.33-6.71,1.03,3.59-1.51,5.24.44,7.69,4.48.63,9.65.41,14.54-.91,9.76-2.63,19.39-5.79,29.04-8.83,4.04-1.27,7.26-4.03,10.56-6.5,2.63-1.97,2.96-5.04,2.46-8.16-.25-1.61-1.38-3.08-.76-4.82,3.04,3.25,2.14,7.1,1.69,10.89-2.98,4.66-7.6,7.22-12.38,9.49-11.22,5.33-22.87,9.3-35.29,10.74Z"/>
  <path class="cls-2" d="M331.08,510.06c-4.53-2.79-8.59-5.99-11.09-10.91-3.49-6.86-1.52-12.72,3.03-18.15,1.79-2.14,3.82-4.09,6-6.4-.62-1.27-1.38-2.81-2.13-4.35,5.56.7,10.8,2.99,14.25,2.9-7.59-1.58-14.98,2.7-20.03,13.32-2.17,4.57-1.27,9.54,2.37,12.43,2.59-1.93,1.56-6.42,5.19-7.69-3.08,12.41-1.37,16.7,6.57,16.64,1.62-1.53-.39-4.37,2.27-5.84.81,2-.97,4.54,1.15,5.93,2.16,1.41,4.56.4,6.78.06,4.89-.76,9.73-1.84,14.6-2.79-9.12,4.79-18.69,6.85-28.94,4.84Z"/>
  <path class="cls-3" d="M218.89,489.11c-4.31,3.94-9.89,5.88-14.55,9.27-1.55,1.13-2.99,2.43-4.48,3.66-5.55,2.91-9.74,7.64-14.9,11.08-.26-1.84.56-3.05,1.95-4.24,8.42-7.2,17.64-13.26,27.12-18.91,1.32-.79,3.22-.59,4.85-.85Z"/>
  <path class="cls-19" d="M195.09,559.17c-1.01.55-2.05,1.63-3.01,1.56-9.82-.65-19.27,3.21-29.1,2.24.09-.22.17-.45.24-.68,10.55-1.76,21.13-3.26,31.87-3.12Z"/>
  <path class="cls-3" d="M265.11,569.01c.05-.54.1-1.09.16-1.63,3.01-1.41,2.36-3.21.69-5.3-.89-1.11-2.85-1.04-3.01-2.87,3.5.08,6.28,1.8,6.84,5.1.47,2.75-2.02,4.19-4.68,4.7Z"/>
  <path class="cls-3" d="M163.22,562.29c-.07.23-.15.46-.24.68-1.38,0-2.77.02-4.15.03.53-3.75.98-7.51,2.35-11.09.69,3.46-2.24,7.63,2.04,10.38Z"/>
  <path class="cls-3" d="M250.97,575.17c.33-.06.67-.12,1-.19-.33.06-.67.12-1,.19Z"/>
  <path class="cls-3" d="M281.01,256.38c-1.07,2.14-3.31,2.65-5.2,3.52-20.56,9.53-41.54,13.84-63.45,4.53-7.73-3.29-14.53-8.01-20.42-13.99-1.37-1.4-2.6-3.07-3.44-4.83-1.38-2.91-1-5.02,2.94-5.5,9.87-1.2,19.79-2.28,29.56-4.07,15.25-2.79,29.89-7.54,43.43-15.3.26.33.52.67.78,1-1.19,1.48-3,1.97-4.57,2.84-14.7,8.11-30.67,12.2-47.08,14.9-6.2,1.02-12.41,2.01-18.61,3.01.59,1.3,1.12,1.71,1.71,1.81,2.44.44,4.89.86,7.36,1.16,20.51,2.51,39.83-2.69,58.81-9.45,7.18-2.56,14-6.15,19.73-11.33,6.82-6.17,6.98-8.69,1.74-16.22-1.44-.45-2.15.8-3.21,1.18-.26-.21-.51-.43-.77-.64,4.75-5.09,9.3-10.3,12.08-16.84,1.44-3.39,2.47-6.78,2.72-10.51.42-6.13-3.2-9.4-8.22-11.99,3.73-1.37,4.29-1.31,6.61.86,4.8,4.49,5.28,10.13,4.03,16.11-1.17,5.64-3.53,10.94-7.57,14.93-3.26,3.22-3.17,6.05-1.52,9.67,2.08,4.57,2.74,9.02-2.2,12.28.88,3.99,4.2,5.22,6.78,7.14,4.73,3.51,5.93,7.46,2.81,12.45-3.64,5.81-8.49,10.55-14.93,13.37,1.4-2.06,3.44-3.61,2.56-6.83-1.69-6.12-6.76-8.36-13.73-5.83-4.8,1.74-8.04,5.6-11.76,8.65-7.03-6.11-8.6-6.43-15.38-2.69-6.75,3.73-11.14,9.26-13.29,17.38,13.29.92,25.09-.94,36.64-4.86,5.11-1.73,9.58-5.06,15.03-5.91Z"/>
  <path class="cls-3" d="M299.93,253.39c.07,2.07,1.2,3.59,2.57,4.99-2.19.28-4.75-.39-6.38,3.03,5.61,1.25,9.69,5.81,16.31,4.38,3.49-.75,7.43.99,10.78,3.08,1.81,1.13,3.91,1.77,5.88,2.64-8.68,5.54-16.52,12.11-23.37,19.39-5.62-8.92-14.67-7.68-22.43-8.98-2.21,1.92-.43,3.94-1.31,5.54-2.2-4.24-1.35-8.44,1.04-12.06,5.11-7.71,10.69-15.11,16.89-22Z"/>
  <path class="cls-3" d="M176.04,287.46c2.78-11.55-1.53-21.37-7.45-30.85-2.6-4.17-5.47-8.24-6.53-13.19,7.14,11.65,16.6,22.3,16.09,37.26-.09,2.48-.15,4.91-2.11,6.78Z"/>
  <path class="cls-2" d="M228.8,200.36c.58-4.2,2.75-7.94,3.26-12.22.77-6.42-1.45-11.97-4.14-17.49,1.07-.68,1.46.29,1.86.87,4.94,7.17,5.07,21.14.25,28.27-.22.32-.81.38-1.23.57Z"/>
  <path class="cls-2" d="M205.12,159.7c4.58-4.01,8.96-8.41,15.71-8.35-3.18,1.31-5.99,3.15-8.38,5.63,1.47,3.42,6.74,1.54,7.49,5.68-4.79-1.75-9.47-4.04-14.82-2.95Z"/>
  <path class="cls-2" d="M224.83,204.31c.71-.28.81-1.69,2-1.06-1.48,4.56-4.74,7.34-9.06,9.07,1.18-3.71,5.77-4.4,7.06-8.01Z"/>
  <path class="cls-3" d="M270.11,218.65c2.36-3.91,5.39-6.98,10.04-8.03l-.06-.02c-2.88,3.23-6.18,5.94-9.99,8.01v.04Z"/>
  <path class="cls-2" d="M258.53,205.02c-4.31-.97-6.21-2.49-6.05-6.64,3.05,1.38,4.14,3.63,6.05,6.64Z"/>
  <path class="cls-3" d="M292.52,288.47c-4.08-.34-7.89.69-11.58,2.33-.33-1.33.34-2.37,1.02-3.4,3.54.15,7.22-1.06,10.56,1.08Z"/>
  <path class="cls-2" d="M268.42,184.73c3.61-1.53,5.17-.11,6.78,2.41-2.64.33-4.4-.54-6.78-2.41Z"/>
  <path class="cls-2" d="M227.9,170.64c-1.85-1.21-2.87-3.08-3.95-4.92,3.34.02,4.11,2.09,3.95,4.92Z"/>
  <path class="cls-3" d="M264.45,220.75c1.69-1.24,3.07-3.3,5.66-2.1,0,0-.01-.04-.01-.04-1.29,1.56-2.97,2.51-4.86,3.14l-.78-1Z"/>
  <path class="cls-2" d="M223.87,165.64c-1.76-.4-2.95-1.54-3.92-2.98,2.35-.38,3.98.19,3.92,2.98Z"/>
  <path class="cls-2" d="M226.77,203.34c-.71-1.04.64-1.64.55-2.55.53-.1.74-1.15,1.51-.51.29,1.68.03,2.99-2.06,3.06Z"/>
  <path class="cls-3" d="M280.15,210.62c-.88-.67-.24-1.14.21-1.63.25.21.5.43.76.64-.34.32-.68.65-1.03.97l.06.02Z"/>
  <path class="cls-3" d="M246.06,308.42c-1.13.42-1.51.09-1.07-1.06.75-.04,1.01.41,1.07,1.06Z"/>
  <path class="cls-3" d="M300.96,252.17c-.08.65-.24,1.23-1.05,1.28.35-.43.7-.85,1.05-1.28Z"/>
  <path class="cls-24" d="M353.82,338.9c4.38,4.65,7.13,10.2,10.2,15.76,2.92,5.29,2.01,10.63,3.69,15.71.49,1.49-.1,3.49,2.14,4.04-3.33,4.2-8.82,4.81-12.89,7.77-4.98,2.08-9.68,4.69-14.25,7.54-2.05,2.77-5.17,4.16-7.87,6.1-2.76,2.09-5.92,3.79-7,7.46,0,0,.07-.08.07-.08-1.64-.21-1.62,1.77-2.82,2.15-4.14,1.16-5.87,5.15-8.04,8-7.49,9.85-7.7,22.37-10.93,33.79-5.78.06-11.56.12-17.34.18-.59-.08-1.18-.15-1.78-.23-6.07-4.26-12.88-7.27-18.91-11.67-11.25-8.21-20.02-18.47-25.67-31.06-2.4-5.35-3.51-11.46-4.26-17.34-2.14-16.75-1.26-33.4,3.04-49.81,1.55-5.89,1.17-6.44-4.9-7.98-2.29-.58-3.39-1.85-3.31-4.23.06-1.66-.01-3.33-.03-4.99,3.45-3.67,10.17-5.64,14.1-3.43,3.03,1.71,4.59-1.02,6.89-1.36,7.62-1.12,13.63-5.05,18.64-11.04,3.12-3.73,7.15-6.74,10.97-9.82,2.09-1.68,4.77-1.37,7.17-.55,2.22.76,4.24,1.96,1.71,4.67,4.77,1.54,10.53,10.3,9.79,14.79-.25,1.51,1.17,2.32.95,3.67-3.48,8.35-7.97,16.42-7.11,26.08,1.91.6,3.76,1.18,5.91,1.85-1.43,5.72,1.14,8.37,6.76,8.46.9.01,1.58.46,1.99,1.26,1.68,3.28,4.48,2.87,7.31,2.15,13.21-3.36,25.15-9.19,35.37-18.32.1.18.24.35.4.48Z"/>
  <path class="cls-15" d="M306.13,447.13c3.23-11.42,3.44-23.94,10.93-33.79,2.17-2.85,3.91-6.84,8.04-8-1.48,3.82-5.18,6.64-5.04,11.19-2.19,2.22-1.13,5.79-3.34,8.01-1.97,5.67-2.68,11.57-2.7,17.5-.01,3.63-1.4,5.23-4.88,5.31-1.01-.07-2.01-.14-3.02-.21Z"/>
  <path class="cls-3" d="M309.15,447.34c3.48-.07,4.86-1.68,4.88-5.31.02-5.93.72-11.83,2.7-17.5.78,3.51-.61,6.85-1.02,10.24-.93,7.68-.3,15.1,1.87,22.46-.31-.02-.61.02-.9.13-2.4-1.65-5.17-.77-7.75-1.14,1.38-1.97,4.24-.44,5.87-2.78-.14-1.23.23-2.9-1.4-4.4-8.07,0-16.34,2.41-24.61.27,2.09-.19,4.29.4,6.22-.92,4.69-.63,9.57,1.13,14.15-1.05Z"/>
  <path class="cls-3" d="M320.06,416.53c-.14-4.55,3.56-7.37,5.04-11.19,1.2-.37,1.18-2.36,2.82-2.15-2.62,4.44-5.24,8.89-7.86,13.33Z"/>
  <path class="cls-3" d="M342.72,389.72c4.57-2.85,9.27-5.46,14.25-7.54-4.13,3.69-8.64,6.65-14.25,7.54Z"/>
  <path class="cls-3" d="M327.86,403.27c1.08-3.66,4.25-5.37,7-7.46-1.26,3.5-4.06,5.54-7,7.46Z"/>
  <path class="cls-2" d="M320.94,465.76c-1.15-1.29-2.88-2.32-2.09-4.51,1.92.93,3.23,2.16,2.09,4.51Z"/>
  <path class="cls-2" d="M326.92,470.28c-1.55-.03-2.53-1.05-3.52-2.05,2.39-1.4,3.27-.23,3.52,2.05Z"/>
  <path class="cls-2" d="M316.67,457.36c.29-.1.59-.15.9-.13.64,1.29,1.83,2.4,1.3,4.07-2.1-.55-1.85-2.41-2.2-3.94Z"/>
  <path class="cls-3" d="M296.99,646.57c.18-9.19.06-9.31-9.31-9.41-4.1-.04-8.21-.1-12.31-.15,6.64-1.95,13.44-1.06,20.13-.77,4.09.18,4.67,5.16,1.49,10.33Z"/>
  <path class="cls-3" d="M293.2,652.28c-.3-2.98,1.72-4.41,3.83-5.79-.81,2.24-1.96,4.25-3.83,5.79Z"/>
  <path class="cls-3" d="M179.15,630.96c-2.36.3-2.84-1.22-2.98-3.07,1.95.09,2.13,1.91,2.98,3.07Z"/>
  <path class="cls-3" d="M435.92,607.07c1.63.04,3.22.16,3.97,1.97-1.57-.16-2.82-.98-3.97-1.97Z"/>
  <path class="cls-3" d="M176.22,627.98c-1.11-.27-1.4-.98-1.11-2.02.79.44,1.68.83,1.11,2.02Z"/>
  <path class="cls-3" d="M174.15,625.05c-.35-.3-.71-.59-1.06-.89.35.3.71.59,1.06.89Z"/>
  <path class="cls-3" d="M175.15,626c-.78.08-1.05-.35-1.06-1.05.72-.02.94.46,1.06,1.05Z"/>
  <path class="cls-3" d="M353.42,338.42c-10.22,9.13-22.16,14.96-35.37,18.32-2.82.72-5.62,1.13-7.31-2.15-.41-.8-1.09-1.25-1.99-1.26-5.62-.09-8.19-2.73-6.76-8.46-2.15-.67-4-1.25-5.91-1.85-.86-9.66,3.63-17.73,7.11-26.08,2.36-4.4,3.96-8.84.67-13.52,2.78.53,3.32,6.2,7.82,3.46-2.41,3.84-4.9,7.63-7.21,11.53-3.06,5.17-5.1,10.73-6.08,16.69-1.16,7.06.02,8.15,6.67,5.86,1.47,1.74-.22,3.02-.68,4.46-.49,1.55-1.48,3.21-.12,4.65,1.27,1.35,3.04.9,4.7.68,1.77-.24,3.31-1.56,5.31-1.15-.07,1.74-2.31,3.38-.66,4.99,1.62,1.58,3.8.71,5.67.2,10.33-2.81,19.78-7.47,28.55-13.58,1.69-1.17,3.04-3.2,5.56-2.79Z"/>
  <path class="cls-2" d="M329.82,289.28c.35-2.58.7-5.16,1.3-9.65,1.41,6.05,4.33,3.88,7.32,4.3-2.83,1.83-5.66,3.66-8.49,5.5l-.13-.14Z"/>
  <path class="cls-2" d="M323.49,294.94c-3.46,3.19-6.93,6.39-11.41,10.52,2.71-5.69,6.5-8.57,10.38-11.37l1.03.86Z"/>
  <path class="cls-3" d="M303.92,303.48c-2.14-2.32-2.66-5.49-4.2-8.13-1.77-3.03-4.25-5.29-7.32-6.93,4.32-.61,6.43,2.63,8.17,5.45,1.75,2.83,3.81,5.87,3.36,9.61Z"/>
  <path class="cls-2" d="M373.85,273.48c3.02.31,4.3,2.01,3.99,4.98-1.97-1.15-3.38-2.75-3.99-4.98Z"/>
  <path class="cls-2" d="M368.86,269.47c2.49.31,4.82.83,4.99,4.01-2.23-.63-3.55-2.4-4.99-4.01Z"/>
  <path class="cls-2" d="M377.84,278.45c1.28.2,1.18,1.09,1.03,2.02-1.04-.32-1.18-1.1-1.03-2.02Z"/>
  <path class="cls-2" d="M329.95,289.42c-.19.14-.38.28-.57.42.15-.18.3-.37.44-.56,0,0,.13.14.13.14Z"/>
  <path class="cls-3" d="M356.03,335.36c.28,1-.22,1.23-1.09,1.1,0-.73.45-1.01,1.09-1.1Z"/>
  <path class="cls-3" d="M329.98,271.39c.27-.46.58-.5.93-.08,0,0-.45.2-.45.2l-.48-.12Z"/>
  <path class="cls-3" d="M355.03,336.36c.2.93-.44,1.27-1.12,1.58.1-.72.19-1.45,1.12-1.58Z"/>
  <path class="cls-3" d="M245.06,426.21c6.38,4.71,12.15,10.22,19.2,14.09,5.73,3.15,11.92,4.87,18.06,6.8-1.69,1.51-.42,1.85.86,2.18l-.43,1.95c-1.14,1.11-.31,3.06-1.75,4.04-.05-6.57-4.34-8.61-9.9-10.37-9.37-2.97-17.4-8.5-24.4-15.4-.8-.79-2.84-1.36-1.63-3.3Z"/>
  <path class="cls-2" d="M280.99,455.27c1.44-.97.61-2.93,1.75-4.04.07.49.18.97.21,1.46.51,8.03.6,7.88,8.3,6.75,3.12-.46,6.18-2.71,9.53-.9-5.07,1.72-10.66,1.8-15.45,4.68,1.37,4.4,5.37,6.86,6.73,10.94-6.88-4.43-9.76-11.2-11.06-18.89Z"/>
  <path class="cls-3" d="M238.04,481.67c-3.22-1.4-5.54.9-8.14,1.99-.04-.16-.16-.43-.13-.45,4.35-2.67,3.29-5.78.77-9.03,3.34,1.65,5.95,4.04,7.5,7.49Z"/>
  <path class="cls-2" d="M292.02,474.13c2.34,1.35,3.45,3.51,4.03,6.04-2.37-1.33-3.84-3.26-4.03-6.04Z"/>
  <path class="cls-3" d="M243.02,424.19c1.14.22,1.82.89,2.04,2.03-2.12.77-2.18-.52-2.04-2.03Z"/>
  <path class="cls-3" d="M242.02,423.19c.75-.04,1.05.37,1.06,1.07-1.06.35-1.21-.21-1.06-1.07Z"/>
  <path class="cls-2" d="M185,398.37c-7.79-1.29-12.27-7.07-11.11-15.05,3.14,6.26,6.8,10.88,11.11,15.05Z"/>
  <path class="cls-2" d="M188.83,374.11c3.81-2.28,7.62-4.56,11.43-6.84-2.2,4.67-7.25,5.05-10.61,7.9-.27-.35-.54-.71-.82-1.06Z"/>
  <path class="cls-2" d="M186.08,378.34c.92-1.41,1.84-2.82,2.75-4.23.27.35.54.7.82,1.06-1,1.29-1.88,2.71-3.62,3.12,0,0,.05.06.05.06Z"/>
  <path class="cls-3" d="M226.02,332.3c2.66-.28,1.62,1.9,2.06,3.1-1.59-.43-1.89-1.72-2.06-3.1Z"/>
  <path class="cls-3" d="M165.53,122.71c11.03-.34,24.54,13.3,21.89,25.87-3.15,14.88-9.96,27.28-21.94,36.68-3.84,3.02-8.16,3.86-13.15,2.62-3.57-.89-7.06-1.76-10.36-3.39-11.2-5.57-14.49-12.63-10.34-24.41,2.51-7.12,4.58-14.68,9.37-20.68,6.39-8,12.87-16.27,24.52-16.69ZM152.1,134.57c-8.23,7.63-14.49,16.69-18.33,27.18-1.5,4.09-2.14,9.2.43,13.02,6.39,9.5,26.39,17.33,35.13,3.35.26-.41.68-.71,1.04-1.06,6.59-6.52,10.51-14.49,12.71-23.39,2.8-5.35,3.12-10.8,0-16.06-7.15-12.08-20.43-13.32-30.99-3.03Z"/>
  <path class="cls-3" d="M155.73,113.52c9.52-3.51,18.27-1.48,26.59,3.69-.64.09-1.44.46-1.91.22-7.79-4.15-16.23-4.03-24.68-3.91Z"/>
  <path class="cls-3" d="M190.08,119.58c-.34,1.34-.67,2.69-1.01,4.03-2.77-.73-4.79-2.13-4.71-5.36,1.78.99,3.56,1.96,5.72,1.33Z"/>
  <path class="cls-3" d="M141.69,121.23c1.54-1.81,3.48-3.09,5.57-4.17-.47,3.24-2.49,4.4-5.57,4.17Z"/>
  <path class="cls-3" d="M191.04,126.58c2.78,1.05,3.95,3.17,4.02,6.02-2.03-1.55-3.41-3.53-4.02-6.02Z"/>
  <path class="cls-3" d="M147.64,116.75c1.38-1.68,3.35-2.09,5.34-2.42-1.07,2.37-2.54,3.86-5.34,2.42Z"/>
  <path class="cls-3" d="M136.87,125.6c.76-.67,1.51-1.34,2.27-2-.17,1.33-1.01,1.9-2.27,2Z"/>
  <path class="cls-3" d="M190.05,124.58c.82.44,1.11,1.14,1.02,2.04-.82-.44-1.08-1.16-1.02-2.04Z"/>
  <path class="cls-3" d="M182.33,117.09c.69.4,1.37.8,2.06,1.21-1.14.36-1.87.04-2.06-1.21Z"/>
  <path class="cls-3" d="M139.09,123.63c.56-.52,1.12-1.04,1.68-1.57.03,1.15-.81,1.38-1.68,1.57Z"/>
  <path class="cls-3" d="M140.64,122.35c.43-.38.86-.77,1.29-1.15-.43.38-.86.77-1.29,1.15Z"/>
  <path class="cls-3" d="M189.05,123.58c.34.34.69.69,1.03,1.03-.34-.34-.69-.69-1.03-1.03Z"/>
  <path class="cls-3" d="M152.84,114.47c.45-.76.88-.99,1.3.02-.43,0-.86-.02-1.3-.02Z"/>
  <path class="cls-18" d="M111.06,229.42c-.57,2.71,1.75,6.1-1.88,8.1.3-2.78-1.23-5.98,1.88-8.1Z"/>
  <path class="cls-3" d="M277.74,95.82c.77,9.76-3.91,16.49-10.75,22.15-8.21,6.79-18.02,9.98-28.26,11.48-12.25,1.79-21.08-4.8-24.63-17.38-3.9-13.86.17-22.25,15.21-29.86,6.47-3.27,13.23-6.14,20.13-8.35,6.98-2.24,13.74-1.22,19.12,4.52,4.75,5.07,10.48,9.61,9.17,17.42ZM247.99,103.66c7.74.92,11.89,7.8,17.99,11.23,7.51-6.6,7.91-6.64,6.9-15.95-.94-8.6-7.19-19.54-16.88-20.15-11.96-.75-22.89,2.67-32.48,9.97-1.23.93-2.8,2.03-1.91,4.24,4.28,1.91,9.36,1.83,13.39,4.65-4.32.11-8.47-1.36-12.85-1.09-5.44.34-7.46,1.78-6.94,7.14.71,7.39,3,14.36,8.93,19.39,4.08,3.46,8.97,5.05,14.34,4.1,6.71-1.18,13.13-3.3,19.21-6.44,4.85-2.5,5.33-4.94,1.16-8.55-3.48-3.01-7.23-5.7-10.85-8.54Z"/>
  <path class="cls-16" d="M426.39,358.58c-2.49-5.38-.66-10.56-2.23-15.84,3.94,3.85,4.74,9.5,2.23,15.84Z"/>
  <path class="cls-3" d="M415.87,331.3c2.47-1.54,2.59.46,3.03,2-1.33-.18-2.23-1.01-3.03-2Z"/>
  <path class="cls-3" d="M418.94,333.33c1.47.01,2.8.21,2.89,2.11-1.28-.26-2.19-1.05-2.89-2.11Z"/>
  <path class="cls-3" d="M421.8,335.4c.85,0,1.58.25,2.04,1.03-.98.26-1.56-.29-2.04-1.03Z"/>
  <path class="cls-3" d="M397.98,311.31c-.8,0-2.01.3-2.21-.57-1.91-8.26-4.28-16.46-3.68-25.08.03-.43.49-.83.74-1.24,1.48,9.01,2,18.2,5.14,26.9Z"/>
  <path class="cls-3" d="M390.85,276.5c-1.62-.1-1.74,1.78-2.92,2.27q-1.45-4,2.05-5.38c.87.88,1.04,1.95.87,3.11Z"/>
  <path class="cls-3" d="M392.68,283.35c-2.93-.98-1.43-3.42-1.73-5.27,1.39,1.49,1.01,3.56,1.73,5.27Z"/>
  <path class="cls-3" d="M424.92,329.34c-.97-.05-1.73-.4-2.02-1.42.67.47,1.35.95,2.02,1.42Z"/>
  <path class="cls-3" d="M389.81,271.41c-.29-.44-.59-.88-.88-1.32.29.44.59.88.88,1.32Z"/>
  <path class="cls-3" d="M399.1,312.35c-.4-.34-.79-.68-1.19-1.02.4.34.79.68,1.19,1.02Z"/>
  <path class="cls-3" d="M388.93,269.5c-.12-.25-.28-.5-.35-.77-.02-.08.2-.22.32-.33,0,.36.02.73.03,1.09Z"/>
  <path class="cls-3" d="M426.24,330.32c-.46-.34-.91-.67-1.37-1.01.46.34.91.67,1.37,1.01Z"/>
  <path class="cls-3" d="M137.7,320.46c-.83-3.05-1.03-5.13,1.82-5.84,1.32-.33,3,.02,3.11,1.53.24,3.2-2.97,2.62-4.93,4.31Z"/>
  <path class="cls-3" d="M164.88,304.98c-.02,2.38-1.88,3.3-2.49,5.08-2.45-.62-2.8-2.22-1.9-4.03.99-1.99,2.64-1.9,4.39-1.06Z"/>
  <path class="cls-3" d="M119.8,314.07c-1.42,1.92-3.69,1.3-4.81,3.77-.31-5.52.38-5.96,4.81-3.77Z"/>
  <path class="cls-2" d="M283.17,449.28c-1.28-.34-2.55-.68-.86-2.18,1.57,0,3.13,0,4.7-.01.59.08,1.18.15,1.78.23,2.07.36,4.14.71,6.21,1.07-1.92,1.32-4.13.73-6.22.92-1.87,0-3.74-.02-5.62-.03Z"/>
  <path class="cls-3" d="M388.93,305.39c-.02-1.37-.05-2.73-.07-4.1,1.32,1.34,1.43,2.71.07,4.1Z"/>
  <path class="cls-16" d="M320.89,245.54c5.32-2.23,10.77-2.31,16.31-.94-5.42.54-10.76,2.5-16.31.94Z"/>
  <path class="cls-3" d="M191.98,118.19c-.3.97-1.05,1.31-1.97,1.42.66-.47,1.32-.95,1.97-1.42Z"/>
  <path class="cls-3" d="M202.96,146.48c1.62-.99,3.24-1.98,4.86-2.97,1.55.49.24,1.28.21,1.94-1.83-.35-3.1,2.06-5.07,1.03Z"/>
  <path class="cls-3" d="M115.13,555.17c-4.78-.57-9.56-1.1-14.34-1.71-8.61-1.09-16.75.43-25.08,4.16,4.34,6.26,13.69,7.65,14.49,17.08-12.65.47-24.72,3.48-37.07,4.43,4.64-3.32,10.25-3.26,15.47-3.82,6.07-.65,11.91-2.82,18.96-2.03-2.68-8.01-12.31-9.15-14.44-17.13,10.84-4.03,21.49-6.61,32.8-3.44,3.06.86,6.76-.64,9.21,2.46Z"/>
  <path class="cls-3" d="M304.25,457.49c1.07-2.36,3.14-1.03,4.78-1.28-1.23,1.79-3.28.52-4.78,1.28Z"/>
  <path class="cls-23" d="M280.09,210.6c.34-.32.68-.65,1.03-.97,1.07-.38,1.77-1.62,3.21-1.18,5.24,7.53,5.08,10.05-1.74,16.22-5.73,5.18-12.55,8.78-19.73,11.33-18.99,6.77-38.3,11.97-58.81,9.45-2.46-.3-4.91-.72-7.36-1.16-.59-.11-1.12-.52-1.71-1.81,6.2-1,12.41-1.99,18.61-3.01,16.41-2.7,32.38-6.79,47.08-14.9,1.57-.87,3.38-1.36,4.57-2.84,1.89-.63,3.57-1.58,4.86-3.14,3.81-2.07,7.11-4.77,9.99-8.01Z"/>
  <path class="cls-14" d="M281.01,256.38c-5.45.85-9.92,4.17-15.03,5.91-11.55,3.91-23.35,5.78-36.64,4.86,2.15-8.12,6.54-13.64,13.29-17.38,6.78-3.75,8.34-3.42,15.38,2.69,3.73-3.06,6.96-6.91,11.76-8.65,6.97-2.53,12.04-.28,13.73,5.83.89,3.22-1.16,4.77-2.56,6.83,0,0,.08-.08.08-.08Z"/>
  <path class="cls-12" d="M295,448.39c-2.07-.36-4.14-.71-6.21-1.07,5.78-.06,11.56-.12,17.34-.18,1.01.07,2.02.14,3.02.21-4.58,2.18-9.45.41-14.15,1.05Z"/>
  <path class="cls-7" d="M183.09,153.66c-2.2,8.9-6.12,16.87-12.71,23.39-.35.35-.78.65-1.04,1.06-8.74,13.98-28.74,6.15-35.13-3.35-2.57-3.82-1.93-8.93-.43-13.02,3.83-10.49,10.1-19.54,18.33-27.18.58.56,1.08,1.49,1.74,1.62,11.8,2.41,20.52,9.94,29.24,17.47ZM154.31,146.9c.42,6.1-1.18,12.51,2.35,18.1.55-6.23,0-12.31-2.35-18.1ZM160.43,156.41c2.23-6.42,1.87-11.04-1.1-13.5.14,4.52-.97,8.88,1.1,13.5Z"/>
  <path class="cls-4" d="M183.09,153.66c-8.72-7.53-17.44-15.06-29.24-17.47-.66-.14-1.16-1.06-1.74-1.62,10.56-10.29,23.85-9.04,30.99,3.03,3.11,5.26,2.79,10.71,0,16.06Z"/>
  <path class="cls-7" d="M247.98,103.66c3.63,2.83,7.38,5.53,10.85,8.54,4.18,3.61,3.69,6.05-1.16,8.55-6.08,3.14-12.5,5.26-19.21,6.44-5.37.95-10.26-.64-14.34-4.1-5.93-5.03-8.22-11.99-8.93-19.39-.51-5.36,1.5-6.8,6.94-7.14,4.38-.27,8.53,1.19,12.85,1.09h.03c3.66,3.44,8.08,5.22,12.96,5.99,0,0,0,.02,0,.02Z"/>
  <path class="cls-2" d="M234.99,97.65c-4.04-2.82-9.11-2.74-13.39-4.65-.89-2.21.68-3.3,1.91-4.24,9.59-7.29,20.53-10.71,32.48-9.97,9.7.61,15.94,11.55,16.88,20.15,1.01,9.3.62,9.34-6.9,15.95-6.1-3.43-10.25-10.31-17.99-11.23,0,0,0-.02,0-.02-.11-.91-.22-1.82-.33-2.72.15-3.3,2.34-6.6.32-10.75-2.22,3.39-1.95,6.65-3,9.49-1.18-.31-2.01-1-2.46-2.14.47-2.3.92-4.61-.13-7.51-2.71,2.47-2.32,5.17-2.58,7.66-1.59,0-3.19,0-4.78,0,0,0-.03-.01-.03-.01Z"/>
  <path class="cls-23" d="M154.31,146.9c2.35,5.79,2.9,11.87,2.35,18.1-3.53-5.59-1.93-12-2.35-18.1Z"/>
  <path class="cls-23" d="M160.43,156.41c-2.06-4.61-.96-8.98-1.1-13.5,2.97,2.46,3.33,7.07,1.1,13.5Z"/>
  <path class="cls-3" d="M235.02,97.66c1.59,0,3.19,0,4.78,0,1,1.72,1.88,1.26,2.71-.15.45,1.14,1.29,1.83,2.46,2.14.7.83.96,2.59,2.67,1.26.11.91.22,1.82.33,2.72-4.88-.77-9.3-2.55-12.96-5.98Z"/>
  <path class="cls-23" d="M247.65,100.91c-1.72,1.33-1.98-.43-2.67-1.26,1.04-2.84.78-6.1,3-9.49,2.02,4.16-.17,7.45-.32,10.75Z"/>
  <path class="cls-23" d="M242.51,97.51c-.83,1.41-1.71,1.87-2.71.15.25-2.49-.14-5.19,2.58-7.66,1.05,2.91.6,5.21.13,7.51Z"/>
</svg>